<?xml version="1.0" encoding="UTF-8" standalone="no"?><!DOCTYPE svg PUBLIC "-//W3C//DTD SVG 1.1//EN" "http://www.w3.org/Graphics/SVG/1.1/DTD/svg11.dtd"><svg width="100%" height="100%" viewBox="0 0 2667 2000" version="1.1" xmlns="http://www.w3.org/2000/svg" xmlns:xlink="http://www.w3.org/1999/xlink" xml:space="preserve" xmlns:serif="http://www.serif.com/" style="fill-rule:evenodd;clip-rule:evenodd;stroke-linecap:square;stroke-linejoin:bevel;stroke-miterlimit:10;"><rect x="0" y="0" width="2666.67" height="2000" style="fill:#fff;"/><rect x="4.167" y="1820.83" width="2658.33" height="175" style="fill:#fff;"/><g><path d="M16.667,1864.58l58.333,0" style="fill:none;fill-rule:nonzero;stroke:#f55;stroke-width:12.5px;"/></g><g><text x="91.667px" y="1883.38px" style="font-family:'Tahoma', sans-serif;font-size:50px;fill:#404040;">P<tspan x="118.083px 145.231px " y="1883.38px 1883.38px ">oi</tspan>nt[] points = {new P<tspan x="613.298px 640.446px " y="1883.38px 1883.38px ">oi</tspan>nt(-4<tspan x="760.588px 775.724px " y="1883.38px 1883.38px ">,-</tspan>7),...<tspan x="898.429px " y="1883.38px ">}</tspan></text></g><g><path d="M954.167,1864.58l58.333,0" style="fill:none;fill-rule:nonzero;stroke:#55f;stroke-width:12.5px;"/></g><g><text x="1029.17px" y="1883.38px" style="font-family:'Tahoma', sans-serif;font-size:50px;fill:#404040;">f<tspan x="1044.6px 1071.75px " y="1883.38px 1883.38px ">or</tspan>(P<tspan x="1135.32px 1162.47px " y="1883.38px 1883.38px ">oi</tspan>nt point : points){point.r<tspan x="1713.88px 1740.2px " y="1883.38px 1883.38px ">eﬂ</tspan>ectY();}</text></g><g><path d="M16.667,1952.08l58.333,0" style="fill:none;fill-rule:nonzero;stroke:#5f5;stroke-width:12.5px;"/></g><g><text x="91.667px" y="1970.88px" style="font-family:'Tahoma', sans-serif;font-size:50px;fill:#404040;">f<tspan x="107.096px 134.245px " y="1970.88px 1970.88px ">or</tspan>(P<tspan x="197.819px 224.967px " y="1970.88px 1970.88px ">oi</tspan>nt point : points){point.r<tspan x="776.383px 802.702px " y="1970.88px 1970.88px ">eﬂ</tspan>ectY(3);}</text></g><rect x="250" y="41.667" width="2366.67" height="1566.67" style="fill:#c0c0c0;"/><path d="M250,1625l2366.67,0" style="fill:none;fill-rule:nonzero;stroke:#808080;stroke-width:2.08px;stroke-linejoin:miter;"/><g><text x="322.167px" y="1693.83px" style="font-family:'Tahoma', sans-serif;font-size:50px;fill:#404040;">-16</text></g><path d="M357.583,1633.33l0,-8.333" style="fill:none;fill-rule:nonzero;stroke:#808080;stroke-width:2.08px;stroke-linejoin:miter;"/><g><text x="435.417px" y="1693.83px" style="font-family:'Tahoma', sans-serif;font-size:50px;fill:#404040;">-14</text></g><path d="M470.833,1633.33l0,-8.333" style="fill:none;fill-rule:nonzero;stroke:#808080;stroke-width:2.08px;stroke-linejoin:miter;"/><g><text x="548.625px" y="1693.83px" style="font-family:'Tahoma', sans-serif;font-size:50px;fill:#404040;">-12</text></g><path d="M584.042,1633.33l-0,-8.333" style="fill:none;fill-rule:nonzero;stroke:#808080;stroke-width:2.08px;stroke-linejoin:miter;"/><g><text x="661.875px" y="1693.83px" style="font-family:'Tahoma', sans-serif;font-size:50px;fill:#404040;">-10</text></g><path d="M697.292,1633.33l-0,-8.333" style="fill:none;fill-rule:nonzero;stroke:#808080;stroke-width:2.08px;stroke-linejoin:miter;"/><g><text x="787.625px" y="1693.83px" style="font-family:'Tahoma', sans-serif;font-size:50px;fill:#404040;">-8</text></g><path d="M810.542,1633.33l-0,-8.333" style="fill:none;fill-rule:nonzero;stroke:#808080;stroke-width:2.08px;stroke-linejoin:miter;"/><g><text x="900.833px" y="1693.83px" style="font-family:'Tahoma', sans-serif;font-size:50px;fill:#404040;">-6</text></g><path d="M923.75,1633.33l0,-8.333" style="fill:none;fill-rule:nonzero;stroke:#808080;stroke-width:2.08px;stroke-linejoin:miter;"/><g><text x="1014.08px" y="1693.83px" style="font-family:'Tahoma', sans-serif;font-size:50px;fill:#404040;">-4</text></g><path d="M1037,1633.33l0,-8.333" style="fill:none;fill-rule:nonzero;stroke:#808080;stroke-width:2.08px;stroke-linejoin:miter;"/><g><text x="1127.33px" y="1693.83px" style="font-family:'Tahoma', sans-serif;font-size:50px;fill:#404040;">-2</text></g><path d="M1150.25,1633.33l0,-8.333" style="fill:none;fill-rule:nonzero;stroke:#808080;stroke-width:2.08px;stroke-linejoin:miter;"/><g><text x="1248.88px" y="1693.83px" style="font-family:'Tahoma', sans-serif;font-size:50px;fill:#404040;">0</text></g><path d="M1263.46,1633.33l0,-8.333" style="fill:none;fill-rule:nonzero;stroke:#808080;stroke-width:2.08px;stroke-linejoin:miter;"/><g><text x="1362.12px" y="1693.83px" style="font-family:'Tahoma', sans-serif;font-size:50px;fill:#404040;">2</text></g><path d="M1376.71,1633.33l0,-8.333" style="fill:none;fill-rule:nonzero;stroke:#808080;stroke-width:2.08px;stroke-linejoin:miter;"/><g><text x="1475.38px" y="1693.83px" style="font-family:'Tahoma', sans-serif;font-size:50px;fill:#404040;">4</text></g><path d="M1489.96,1633.33l0,-8.333" style="fill:none;fill-rule:nonzero;stroke:#808080;stroke-width:2.08px;stroke-linejoin:miter;"/><g><text x="1588.62px" y="1693.83px" style="font-family:'Tahoma', sans-serif;font-size:50px;fill:#404040;">6</text></g><path d="M1603.21,1633.33l0,-8.333" style="fill:none;fill-rule:nonzero;stroke:#808080;stroke-width:2.08px;stroke-linejoin:miter;"/><g><text x="1701.83px" y="1693.83px" style="font-family:'Tahoma', sans-serif;font-size:50px;fill:#404040;">8</text></g><path d="M1716.42,1633.33l-0,-8.333" style="fill:none;fill-rule:nonzero;stroke:#808080;stroke-width:2.08px;stroke-linejoin:miter;"/><g><text x="1802.58px" y="1693.83px" style="font-family:'Tahoma', sans-serif;font-size:50px;fill:#404040;">10</text></g><path d="M1829.67,1633.33l-0,-8.333" style="fill:none;fill-rule:nonzero;stroke:#808080;stroke-width:2.08px;stroke-linejoin:miter;"/><g><text x="1915.83px" y="1693.83px" style="font-family:'Tahoma', sans-serif;font-size:50px;fill:#404040;">12</text></g><path d="M1942.92,1633.33l-0,-8.333" style="fill:none;fill-rule:nonzero;stroke:#808080;stroke-width:2.08px;stroke-linejoin:miter;"/><g><text x="2029.04px" y="1693.83px" style="font-family:'Tahoma', sans-serif;font-size:50px;fill:#404040;">14</text></g><path d="M2056.12,1633.33l0,-8.333" style="fill:none;fill-rule:nonzero;stroke:#808080;stroke-width:2.08px;stroke-linejoin:miter;"/><g><text x="2142.29px" y="1693.83px" style="font-family:'Tahoma', sans-serif;font-size:50px;fill:#404040;">16</text></g><path d="M2169.38,1633.33l0,-8.333" style="fill:none;fill-rule:nonzero;stroke:#808080;stroke-width:2.08px;stroke-linejoin:miter;"/><g><text x="2255.54px" y="1693.83px" style="font-family:'Tahoma', sans-serif;font-size:50px;fill:#404040;">18</text></g><path d="M2282.62,1633.33l0,-8.333" style="fill:none;fill-rule:nonzero;stroke:#808080;stroke-width:2.08px;stroke-linejoin:miter;"/><g><text x="2368.75px" y="1693.83px" style="font-family:'Tahoma', sans-serif;font-size:50px;fill:#404040;">20</text></g><path d="M2395.83,1633.33l0,-8.333" style="fill:none;fill-rule:nonzero;stroke:#808080;stroke-width:2.08px;stroke-linejoin:miter;"/><g><text x="2482px" y="1693.83px" style="font-family:'Tahoma', sans-serif;font-size:50px;fill:#404040;">22</text></g><path d="M2509.08,1633.33l0,-8.333" style="fill:none;fill-rule:nonzero;stroke:#808080;stroke-width:2.08px;stroke-linejoin:miter;"/><g><text x="1412.5px" y="1773.29px" style="font-family:'Tahoma-Bold', 'Tahoma', sans-serif;font-weight:700;font-size:58.333px;fill:#404040;">X</text></g><path d="M233.333,41.667l0,1566.67" style="fill:none;fill-rule:nonzero;stroke:#808080;stroke-width:2.08px;stroke-linejoin:miter;"/><g><text x="137.5px" y="1554.67px" style="font-family:'Tahoma', sans-serif;font-size:50px;fill:#404040;">-14</text></g><path d="M225,1533.75l8.333,0" style="fill:none;fill-rule:nonzero;stroke:#808080;stroke-width:2.08px;stroke-linejoin:miter;"/><g><text x="137.5px" y="1448.08px" style="font-family:'Tahoma', sans-serif;font-size:50px;fill:#404040;">-13</text></g><path d="M225,1427.17l8.333,-0" style="fill:none;fill-rule:nonzero;stroke:#808080;stroke-width:2.08px;stroke-linejoin:miter;"/><g><text x="137.5px" y="1341.5px" style="font-family:'Tahoma', sans-serif;font-size:50px;fill:#404040;">-12</text></g><path d="M225,1320.58l8.333,0" style="fill:none;fill-rule:nonzero;stroke:#808080;stroke-width:2.08px;stroke-linejoin:miter;"/><g><text x="137.5px" y="1234.92px" style="font-family:'Tahoma', sans-serif;font-size:50px;fill:#404040;">-11</text></g><path d="M225,1214l8.333,0" style="fill:none;fill-rule:nonzero;stroke:#808080;stroke-width:2.08px;stroke-linejoin:miter;"/><g><text x="137.5px" y="1128.33px" style="font-family:'Tahoma', sans-serif;font-size:50px;fill:#404040;">-10</text></g><path d="M225,1107.42l8.333,-0" style="fill:none;fill-rule:nonzero;stroke:#808080;stroke-width:2.08px;stroke-linejoin:miter;"/><g><text x="162.5px" y="1021.79px" style="font-family:'Tahoma', sans-serif;font-size:50px;fill:#404040;">-9</text></g><path d="M225,1000.83l8.333,0" style="fill:none;fill-rule:nonzero;stroke:#808080;stroke-width:2.08px;stroke-linejoin:miter;"/><g><text x="162.5px" y="915.208px" style="font-family:'Tahoma', sans-serif;font-size:50px;fill:#404040;">-8</text></g><path d="M225,894.292l8.333,-0" style="fill:none;fill-rule:nonzero;stroke:#808080;stroke-width:2.08px;stroke-linejoin:miter;"/><g><text x="162.5px" y="808.625px" style="font-family:'Tahoma', sans-serif;font-size:50px;fill:#404040;">-7</text></g><path d="M225,787.708l8.333,0" style="fill:none;fill-rule:nonzero;stroke:#808080;stroke-width:2.08px;stroke-linejoin:miter;"/><g><text x="162.5px" y="702.042px" style="font-family:'Tahoma', sans-serif;font-size:50px;fill:#404040;">-6</text></g><path d="M225,681.125l8.333,0" style="fill:none;fill-rule:nonzero;stroke:#808080;stroke-width:2.08px;stroke-linejoin:miter;"/><g><text x="162.5px" y="595.458px" style="font-family:'Tahoma', sans-serif;font-size:50px;fill:#404040;">-5</text></g><path d="M225,574.542l8.333,-0" style="fill:none;fill-rule:nonzero;stroke:#808080;stroke-width:2.08px;stroke-linejoin:miter;"/><g><text x="162.5px" y="488.875px" style="font-family:'Tahoma', sans-serif;font-size:50px;fill:#404040;">-4</text></g><path d="M225,467.958l8.333,0" style="fill:none;fill-rule:nonzero;stroke:#808080;stroke-width:2.08px;stroke-linejoin:miter;"/><g><text x="162.5px" y="382.333px" style="font-family:'Tahoma', sans-serif;font-size:50px;fill:#404040;">-3</text></g><path d="M225,361.375l8.333,0" style="fill:none;fill-rule:nonzero;stroke:#808080;stroke-width:2.08px;stroke-linejoin:miter;"/><g><text x="162.5px" y="275.75px" style="font-family:'Tahoma', sans-serif;font-size:50px;fill:#404040;">-2</text></g><path d="M225,254.833l8.333,0" style="fill:none;fill-rule:nonzero;stroke:#808080;stroke-width:2.08px;stroke-linejoin:miter;"/><g><text x="162.5px" y="169.167px" style="font-family:'Tahoma', sans-serif;font-size:50px;fill:#404040;">-1</text></g><path d="M225,148.25l8.333,0" style="fill:none;fill-rule:nonzero;stroke:#808080;stroke-width:2.08px;stroke-linejoin:miter;"/><g><text x="179.167px" y="62.583px" style="font-family:'Tahoma', sans-serif;font-size:50px;fill:#404040;">0</text></g><path d="M225,41.667l8.333,-0" style="fill:none;fill-rule:nonzero;stroke:#808080;stroke-width:2.08px;stroke-linejoin:miter;"/><g><path d="M62.25,804.083l24.667,14.667l17.708,0l0,10.625l-17.208,0l-25.167,14.875l0,-12.083l15.083,-8.334l-15.083,-8l0,-11.75Z" style="fill:#404040;fill-rule:nonzero;"/></g><clipPath id="_clip1"><rect x="250" y="41.667" width="2366.67" height="1566.67"/></clipPath><g clip-path="url(#_clip1)"><path d="M357.583,41.667l0,1566.67" style="fill:none;fill-rule:nonzero;stroke:#fff;stroke-width:2.08px;stroke-linecap:butt;stroke-miterlimit:4;stroke-dasharray:8.33,8.33;"/></g><clipPath id="_clip2"><rect x="250" y="41.667" width="2366.67" height="1566.67"/></clipPath><g clip-path="url(#_clip2)"><path d="M470.833,41.667l0,1566.67" style="fill:none;fill-rule:nonzero;stroke:#fff;stroke-width:2.08px;stroke-linecap:butt;stroke-miterlimit:4;stroke-dasharray:8.33,8.33;"/></g><clipPath id="_clip3"><rect x="250" y="41.667" width="2366.67" height="1566.67"/></clipPath><g clip-path="url(#_clip3)"><path d="M584.042,41.667l-0,1566.67" style="fill:none;fill-rule:nonzero;stroke:#fff;stroke-width:2.08px;stroke-linecap:butt;stroke-miterlimit:4;stroke-dasharray:8.33,8.33;"/></g><clipPath id="_clip4"><rect x="250" y="41.667" width="2366.67" height="1566.67"/></clipPath><g clip-path="url(#_clip4)"><path d="M697.292,41.667l-0,1566.67" style="fill:none;fill-rule:nonzero;stroke:#fff;stroke-width:2.08px;stroke-linecap:butt;stroke-miterlimit:4;stroke-dasharray:8.33,8.33;"/></g><clipPath id="_clip5"><rect x="250" y="41.667" width="2366.67" height="1566.67"/></clipPath><g clip-path="url(#_clip5)"><path d="M810.542,41.667l-0,1566.67" style="fill:none;fill-rule:nonzero;stroke:#fff;stroke-width:2.08px;stroke-linecap:butt;stroke-miterlimit:4;stroke-dasharray:8.33,8.33;"/></g><clipPath id="_clip6"><rect x="250" y="41.667" width="2366.67" height="1566.67"/></clipPath><g clip-path="url(#_clip6)"><path d="M923.75,41.667l0,1566.67" style="fill:none;fill-rule:nonzero;stroke:#fff;stroke-width:2.08px;stroke-linecap:butt;stroke-miterlimit:4;stroke-dasharray:8.33,8.33;"/></g><clipPath id="_clip7"><rect x="250" y="41.667" width="2366.67" height="1566.67"/></clipPath><g clip-path="url(#_clip7)"><path d="M1037,41.667l0,1566.67" style="fill:none;fill-rule:nonzero;stroke:#fff;stroke-width:2.08px;stroke-linecap:butt;stroke-miterlimit:4;stroke-dasharray:8.33,8.33;"/></g><clipPath id="_clip8"><rect x="250" y="41.667" width="2366.67" height="1566.67"/></clipPath><g clip-path="url(#_clip8)"><path d="M1150.25,41.667l0,1566.67" style="fill:none;fill-rule:nonzero;stroke:#fff;stroke-width:2.08px;stroke-linecap:butt;stroke-miterlimit:4;stroke-dasharray:8.33,8.33;"/></g><clipPath id="_clip9"><rect x="250" y="41.667" width="2366.67" height="1566.67"/></clipPath><g clip-path="url(#_clip9)"><path d="M1263.46,41.667l0,1566.67" style="fill:none;fill-rule:nonzero;stroke:#fff;stroke-width:2.08px;stroke-linecap:butt;stroke-miterlimit:4;stroke-dasharray:8.33,8.33;"/></g><clipPath id="_clip10"><rect x="250" y="41.667" width="2366.67" height="1566.67"/></clipPath><g clip-path="url(#_clip10)"><path d="M1376.71,41.667l0,1566.67" style="fill:none;fill-rule:nonzero;stroke:#fff;stroke-width:2.08px;stroke-linecap:butt;stroke-miterlimit:4;stroke-dasharray:8.33,8.33;"/></g><clipPath id="_clip11"><rect x="250" y="41.667" width="2366.67" height="1566.67"/></clipPath><g clip-path="url(#_clip11)"><path d="M1489.96,41.667l0,1566.67" style="fill:none;fill-rule:nonzero;stroke:#fff;stroke-width:2.08px;stroke-linecap:butt;stroke-miterlimit:4;stroke-dasharray:8.33,8.33;"/></g><clipPath id="_clip12"><rect x="250" y="41.667" width="2366.67" height="1566.67"/></clipPath><g clip-path="url(#_clip12)"><path d="M1603.21,41.667l0,1566.67" style="fill:none;fill-rule:nonzero;stroke:#fff;stroke-width:2.08px;stroke-linecap:butt;stroke-miterlimit:4;stroke-dasharray:8.33,8.33;"/></g><clipPath id="_clip13"><rect x="250" y="41.667" width="2366.67" height="1566.67"/></clipPath><g clip-path="url(#_clip13)"><path d="M1716.42,41.667l-0,1566.67" style="fill:none;fill-rule:nonzero;stroke:#fff;stroke-width:2.08px;stroke-linecap:butt;stroke-miterlimit:4;stroke-dasharray:8.33,8.33;"/></g><clipPath id="_clip14"><rect x="250" y="41.667" width="2366.67" height="1566.67"/></clipPath><g clip-path="url(#_clip14)"><path d="M1829.67,41.667l-0,1566.67" style="fill:none;fill-rule:nonzero;stroke:#fff;stroke-width:2.08px;stroke-linecap:butt;stroke-miterlimit:4;stroke-dasharray:8.33,8.33;"/></g><clipPath id="_clip15"><rect x="250" y="41.667" width="2366.67" height="1566.67"/></clipPath><g clip-path="url(#_clip15)"><path d="M1942.92,41.667l-0,1566.67" style="fill:none;fill-rule:nonzero;stroke:#fff;stroke-width:2.08px;stroke-linecap:butt;stroke-miterlimit:4;stroke-dasharray:8.33,8.33;"/></g><clipPath id="_clip16"><rect x="250" y="41.667" width="2366.67" height="1566.67"/></clipPath><g clip-path="url(#_clip16)"><path d="M2056.12,41.667l0,1566.67" style="fill:none;fill-rule:nonzero;stroke:#fff;stroke-width:2.08px;stroke-linecap:butt;stroke-miterlimit:4;stroke-dasharray:8.33,8.33;"/></g><clipPath id="_clip17"><rect x="250" y="41.667" width="2366.67" height="1566.67"/></clipPath><g clip-path="url(#_clip17)"><path d="M2169.38,41.667l0,1566.67" style="fill:none;fill-rule:nonzero;stroke:#fff;stroke-width:2.08px;stroke-linecap:butt;stroke-miterlimit:4;stroke-dasharray:8.33,8.33;"/></g><clipPath id="_clip18"><rect x="250" y="41.667" width="2366.67" height="1566.67"/></clipPath><g clip-path="url(#_clip18)"><path d="M2282.62,41.667l0,1566.67" style="fill:none;fill-rule:nonzero;stroke:#fff;stroke-width:2.08px;stroke-linecap:butt;stroke-miterlimit:4;stroke-dasharray:8.33,8.33;"/></g><clipPath id="_clip19"><rect x="250" y="41.667" width="2366.67" height="1566.67"/></clipPath><g clip-path="url(#_clip19)"><path d="M2395.83,41.667l0,1566.67" style="fill:none;fill-rule:nonzero;stroke:#fff;stroke-width:2.08px;stroke-linecap:butt;stroke-miterlimit:4;stroke-dasharray:8.33,8.33;"/></g><clipPath id="_clip20"><rect x="250" y="41.667" width="2366.67" height="1566.67"/></clipPath><g clip-path="url(#_clip20)"><path d="M2509.08,41.667l0,1566.67" style="fill:none;fill-rule:nonzero;stroke:#fff;stroke-width:2.08px;stroke-linecap:butt;stroke-miterlimit:4;stroke-dasharray:8.33,8.33;"/></g><clipPath id="_clip21"><rect x="250" y="41.667" width="2366.67" height="1566.67"/></clipPath><g clip-path="url(#_clip21)"><path d="M250,1533.75l2366.67,0" style="fill:none;fill-rule:nonzero;stroke:#fff;stroke-width:2.08px;stroke-linecap:butt;stroke-miterlimit:4;stroke-dasharray:8.33,8.33;"/></g><clipPath id="_clip22"><rect x="250" y="41.667" width="2366.67" height="1566.67"/></clipPath><g clip-path="url(#_clip22)"><path d="M250,1427.17l2366.67,-0" style="fill:none;fill-rule:nonzero;stroke:#fff;stroke-width:2.08px;stroke-linecap:butt;stroke-miterlimit:4;stroke-dasharray:8.33,8.33;"/></g><clipPath id="_clip23"><rect x="250" y="41.667" width="2366.67" height="1566.67"/></clipPath><g clip-path="url(#_clip23)"><path d="M250,1320.58l2366.67,0" style="fill:none;fill-rule:nonzero;stroke:#fff;stroke-width:2.08px;stroke-linecap:butt;stroke-miterlimit:4;stroke-dasharray:8.33,8.33;"/></g><clipPath id="_clip24"><rect x="250" y="41.667" width="2366.67" height="1566.67"/></clipPath><g clip-path="url(#_clip24)"><path d="M250,1214l2366.67,0" style="fill:none;fill-rule:nonzero;stroke:#fff;stroke-width:2.08px;stroke-linecap:butt;stroke-miterlimit:4;stroke-dasharray:8.33,8.33;"/></g><clipPath id="_clip25"><rect x="250" y="41.667" width="2366.67" height="1566.67"/></clipPath><g clip-path="url(#_clip25)"><path d="M250,1107.42l2366.67,-0" style="fill:none;fill-rule:nonzero;stroke:#fff;stroke-width:2.08px;stroke-linecap:butt;stroke-miterlimit:4;stroke-dasharray:8.33,8.33;"/></g><clipPath id="_clip26"><rect x="250" y="41.667" width="2366.67" height="1566.67"/></clipPath><g clip-path="url(#_clip26)"><path d="M250,1000.83l2366.67,0" style="fill:none;fill-rule:nonzero;stroke:#fff;stroke-width:2.08px;stroke-linecap:butt;stroke-miterlimit:4;stroke-dasharray:8.33,8.33;"/></g><clipPath id="_clip27"><rect x="250" y="41.667" width="2366.67" height="1566.67"/></clipPath><g clip-path="url(#_clip27)"><path d="M250,894.292l2366.67,-0" style="fill:none;fill-rule:nonzero;stroke:#fff;stroke-width:2.08px;stroke-linecap:butt;stroke-miterlimit:4;stroke-dasharray:8.33,8.33;"/></g><clipPath id="_clip28"><rect x="250" y="41.667" width="2366.67" height="1566.67"/></clipPath><g clip-path="url(#_clip28)"><path d="M250,787.708l2366.67,0" style="fill:none;fill-rule:nonzero;stroke:#fff;stroke-width:2.08px;stroke-linecap:butt;stroke-miterlimit:4;stroke-dasharray:8.33,8.33;"/></g><clipPath id="_clip29"><rect x="250" y="41.667" width="2366.67" height="1566.67"/></clipPath><g clip-path="url(#_clip29)"><path d="M250,681.125l2366.67,0" style="fill:none;fill-rule:nonzero;stroke:#fff;stroke-width:2.08px;stroke-linecap:butt;stroke-miterlimit:4;stroke-dasharray:8.33,8.33;"/></g><clipPath id="_clip30"><rect x="250" y="41.667" width="2366.67" height="1566.67"/></clipPath><g clip-path="url(#_clip30)"><path d="M250,574.542l2366.67,-0" style="fill:none;fill-rule:nonzero;stroke:#fff;stroke-width:2.08px;stroke-linecap:butt;stroke-miterlimit:4;stroke-dasharray:8.33,8.33;"/></g><clipPath id="_clip31"><rect x="250" y="41.667" width="2366.67" height="1566.67"/></clipPath><g clip-path="url(#_clip31)"><path d="M250,467.958l2366.67,0" style="fill:none;fill-rule:nonzero;stroke:#fff;stroke-width:2.08px;stroke-linecap:butt;stroke-miterlimit:4;stroke-dasharray:8.33,8.33;"/></g><clipPath id="_clip32"><rect x="250" y="41.667" width="2366.67" height="1566.67"/></clipPath><g clip-path="url(#_clip32)"><path d="M250,361.375l2366.67,0" style="fill:none;fill-rule:nonzero;stroke:#fff;stroke-width:2.08px;stroke-linecap:butt;stroke-miterlimit:4;stroke-dasharray:8.33,8.33;"/></g><clipPath id="_clip33"><rect x="250" y="41.667" width="2366.67" height="1566.67"/></clipPath><g clip-path="url(#_clip33)"><path d="M250,254.833l2366.67,0" style="fill:none;fill-rule:nonzero;stroke:#fff;stroke-width:2.08px;stroke-linecap:butt;stroke-miterlimit:4;stroke-dasharray:8.33,8.33;"/></g><clipPath id="_clip34"><rect x="250" y="41.667" width="2366.67" height="1566.67"/></clipPath><g clip-path="url(#_clip34)"><path d="M250,148.25l2366.67,0" style="fill:none;fill-rule:nonzero;stroke:#fff;stroke-width:2.08px;stroke-linecap:butt;stroke-miterlimit:4;stroke-dasharray:8.33,8.33;"/></g><clipPath id="_clip35"><rect x="250" y="41.667" width="2366.67" height="1566.67"/></clipPath><g clip-path="url(#_clip35)"><path d="M250,41.667l2366.67,-0" style="fill:none;fill-rule:nonzero;stroke:#fff;stroke-width:2.08px;stroke-linecap:butt;stroke-miterlimit:4;stroke-dasharray:8.33,8.33;"/></g><path d="M1829.67,787.708l226.458,746.042" style="fill:none;fill-rule:nonzero;stroke:#5f5;stroke-width:12.5px;"/><path d="M2056.12,1533.75l452.958,-746.042" style="fill:none;fill-rule:nonzero;stroke:#5f5;stroke-width:12.5px;"/><path d="M2509.08,787.708l-679.416,0" style="fill:none;fill-rule:nonzero;stroke:#5f5;stroke-width:12.5px;"/><path d="M1489.96,787.708l226.459,746.042" style="fill:none;fill-rule:nonzero;stroke:#55f;stroke-width:12.5px;"/><path d="M1716.42,1533.75l452.958,-746.042" style="fill:none;fill-rule:nonzero;stroke:#55f;stroke-width:12.5px;"/><path d="M2169.38,787.708l-679.417,0" style="fill:none;fill-rule:nonzero;stroke:#55f;stroke-width:12.5px;"/><path d="M1037,787.708l-226.458,746.042" style="fill:none;fill-rule:nonzero;stroke:#f55;stroke-width:12.5px;"/><path d="M810.542,1533.75l-452.959,-746.042" style="fill:none;fill-rule:nonzero;stroke:#f55;stroke-width:12.5px;"/><path d="M357.583,787.708l679.417,0" style="fill:none;fill-rule:nonzero;stroke:#f55;stroke-width:12.5px;"/><rect x="250" y="41.667" width="2366.67" height="1566.67" style="fill:none;stroke:#000;stroke-width:2.08px;stroke-linecap:round;stroke-linejoin:round;"/></svg>