<?xml version="1.0" encoding="UTF-8" standalone="no"?><!DOCTYPE svg PUBLIC "-//W3C//DTD SVG 1.1//EN" "http://www.w3.org/Graphics/SVG/1.1/DTD/svg11.dtd"><svg width="100%" height="100%" viewBox="0 0 2667 2000" version="1.1" xmlns="http://www.w3.org/2000/svg" xmlns:xlink="http://www.w3.org/1999/xlink" xml:space="preserve" xmlns:serif="http://www.serif.com/" style="fill-rule:evenodd;clip-rule:evenodd;stroke-linecap:square;stroke-linejoin:bevel;stroke-miterlimit:10;"><rect x="0" y="0" width="2666.67" height="2000" style="fill:#fff;"/><rect x="4.167" y="1645.83" width="2658.33" height="350" style="fill:#fff;"/><g><path d="M16.667,1689.58l58.333,0" style="fill:none;fill-rule:nonzero;stroke:#f55;stroke-width:12.5px;"/></g><g><text x="91.667px" y="1708.38px" style="font-family:'Tahoma', sans-serif;font-size:50px;fill:#404040;">P<tspan x="118.083px 145.231px " y="1708.38px 1708.38px ">oi</tspan>nt[] points = {new P<tspan x="613.298px 640.446px " y="1708.38px 1708.38px ">oi</tspan>nt(-12,<tspan x="802.311px 829.606px " y="1708.38px 1708.38px ">7)</tspan>,...<tspan x="906.852px " y="1708.38px ">}</tspan></text></g><g><path d="M1100,1689.58l58.333,0" style="fill:none;fill-rule:nonzero;stroke:#55f;stroke-width:12.5px;"/></g><g><text x="1175px" y="1708.38px" style="font-family:'Tahoma', sans-serif;font-size:50px;fill:#404040;">f<tspan x="1190.43px 1217.58px " y="1708.38px 1708.38px ">or</tspan>(P<tspan x="1281.15px 1308.3px " y="1708.38px 1708.38px ">oi</tspan>nt point : points){point.r<tspan x="1859.72px 1886.87px " y="1708.38px 1708.38px ">ot</tspan>ate(90));}</text></g><g><path d="M16.667,1777.08l58.333,0" style="fill:none;fill-rule:nonzero;stroke:#5f5;stroke-width:12.5px;"/></g><g><text x="91.667px" y="1795.88px" style="font-family:'Tahoma', sans-serif;font-size:50px;fill:#404040;">f<tspan x="107.096px 134.245px " y="1795.88px 1795.88px ">or</tspan>(P<tspan x="197.819px 224.967px " y="1795.88px 1795.88px ">oi</tspan>nt point : points){point.r<tspan x="776.383px 803.532px " y="1795.88px 1795.88px ">ot</tspan>ate(180));}</text></g><g><path d="M1095.83,1777.08l58.334,0" style="fill:none;fill-rule:nonzero;stroke:#ff5;stroke-width:12.5px;"/></g><g><text x="1170.83px" y="1795.88px" style="font-family:'Tahoma', sans-serif;font-size:50px;fill:#404040;">f<tspan x="1186.26px 1213.41px " y="1795.88px 1795.88px ">or</tspan>(P<tspan x="1276.99px 1304.13px " y="1795.88px 1795.88px ">oi</tspan>nt point : points){point.r<tspan x="1855.55px 1882.7px " y="1795.88px 1795.88px ">ot</tspan>ate(270));}</text></g><g><path d="M16.667,1864.58l58.333,0" style="fill:none;fill-rule:nonzero;stroke:#f5f;stroke-width:12.5px;"/></g><g><text x="91.667px" y="1883.38px" style="font-family:'Tahoma', sans-serif;font-size:50px;fill:#404040;">f<tspan x="107.096px 134.245px " y="1883.38px 1883.38px ">or</tspan>(P<tspan x="197.819px 224.967px " y="1883.38px 1883.38px ">oi</tspan>nt point : points){point.r<tspan x="776.383px 803.532px " y="1883.38px 1883.38px ">ot</tspan>ate(67));}</text></g><g><path d="M1100,1864.58l58.333,0" style="fill:none;fill-rule:nonzero;stroke:#5ff;stroke-width:12.5px;"/></g><g><text x="1175px" y="1883.38px" style="font-family:'Tahoma', sans-serif;font-size:50px;fill:#404040;">f<tspan x="1190.43px 1217.58px " y="1883.38px 1883.38px ">or</tspan>(P<tspan x="1281.15px 1308.3px " y="1883.38px 1883.38px ">oi</tspan>nt point : points){point.r<tspan x="1859.72px 1886.87px " y="1883.38px 1883.38px ">ot</tspan>ate(139));}</text></g><g><path d="M16.667,1952.08l58.333,0" style="fill:none;fill-rule:nonzero;stroke:#ffafaf;stroke-width:12.5px;"/></g><g><text x="91.667px" y="1970.88px" style="font-family:'Tahoma', sans-serif;font-size:50px;fill:#404040;">f<tspan x="107.096px 134.245px " y="1970.88px 1970.88px ">or</tspan>(P<tspan x="197.819px 224.967px " y="1970.88px 1970.88px ">oi</tspan>nt point : points){point.r<tspan x="776.383px 803.532px " y="1970.88px 1970.88px ">ot</tspan>ate(211));}</text></g><rect x="250" y="41.667" width="2366.67" height="1391.67" style="fill:#c0c0c0;"/><path d="M250,1450l2366.67,0" style="fill:none;fill-rule:nonzero;stroke:#808080;stroke-width:2.08px;stroke-linejoin:miter;"/><g><text x="277.333px" y="1518.83px" style="font-family:'Tahoma', sans-serif;font-size:50px;fill:#404040;">-50</text></g><path d="M312.75,1458.33l0,-8.333" style="fill:none;fill-rule:nonzero;stroke:#808080;stroke-width:2.08px;stroke-linejoin:miter;"/><g><text x="389.375px" y="1518.83px" style="font-family:'Tahoma', sans-serif;font-size:50px;fill:#404040;">-45</text></g><path d="M424.792,1458.33l-0,-8.333" style="fill:none;fill-rule:nonzero;stroke:#808080;stroke-width:2.08px;stroke-linejoin:miter;"/><g><text x="501.458px" y="1518.83px" style="font-family:'Tahoma', sans-serif;font-size:50px;fill:#404040;">-40</text></g><path d="M536.875,1458.33l0,-8.333" style="fill:none;fill-rule:nonzero;stroke:#808080;stroke-width:2.08px;stroke-linejoin:miter;"/><g><text x="613.5px" y="1518.83px" style="font-family:'Tahoma', sans-serif;font-size:50px;fill:#404040;">-35</text></g><path d="M648.917,1458.33l-0,-8.333" style="fill:none;fill-rule:nonzero;stroke:#808080;stroke-width:2.08px;stroke-linejoin:miter;"/><g><text x="725.583px" y="1518.83px" style="font-family:'Tahoma', sans-serif;font-size:50px;fill:#404040;">-30</text></g><path d="M761,1458.33l0,-8.333" style="fill:none;fill-rule:nonzero;stroke:#808080;stroke-width:2.08px;stroke-linejoin:miter;"/><g><text x="837.625px" y="1518.83px" style="font-family:'Tahoma', sans-serif;font-size:50px;fill:#404040;">-25</text></g><path d="M873.042,1458.33l-0,-8.333" style="fill:none;fill-rule:nonzero;stroke:#808080;stroke-width:2.08px;stroke-linejoin:miter;"/><g><text x="949.667px" y="1518.83px" style="font-family:'Tahoma', sans-serif;font-size:50px;fill:#404040;">-20</text></g><path d="M985.083,1458.33l0,-8.333" style="fill:none;fill-rule:nonzero;stroke:#808080;stroke-width:2.08px;stroke-linejoin:miter;"/><g><text x="1061.75px" y="1518.83px" style="font-family:'Tahoma', sans-serif;font-size:50px;fill:#404040;">-15</text></g><path d="M1097.17,1458.33l-0,-8.333" style="fill:none;fill-rule:nonzero;stroke:#808080;stroke-width:2.08px;stroke-linejoin:miter;"/><g><text x="1173.79px" y="1518.83px" style="font-family:'Tahoma', sans-serif;font-size:50px;fill:#404040;">-10</text></g><path d="M1209.21,1458.33l0,-8.333" style="fill:none;fill-rule:nonzero;stroke:#808080;stroke-width:2.08px;stroke-linejoin:miter;"/><g><text x="1298.38px" y="1518.83px" style="font-family:'Tahoma', sans-serif;font-size:50px;fill:#404040;">-5</text></g><path d="M1321.29,1458.33l-0,-8.333" style="fill:none;fill-rule:nonzero;stroke:#808080;stroke-width:2.08px;stroke-linejoin:miter;"/><g><text x="1418.75px" y="1518.83px" style="font-family:'Tahoma', sans-serif;font-size:50px;fill:#404040;">0</text></g><path d="M1433.33,1458.33l0,-8.333" style="fill:none;fill-rule:nonzero;stroke:#808080;stroke-width:2.08px;stroke-linejoin:miter;"/><g><text x="1530.79px" y="1518.83px" style="font-family:'Tahoma', sans-serif;font-size:50px;fill:#404040;">5</text></g><path d="M1545.38,1458.33l0,-8.333" style="fill:none;fill-rule:nonzero;stroke:#808080;stroke-width:2.08px;stroke-linejoin:miter;"/><g><text x="1630.38px" y="1518.83px" style="font-family:'Tahoma', sans-serif;font-size:50px;fill:#404040;">10</text></g><path d="M1657.46,1458.33l0,-8.333" style="fill:none;fill-rule:nonzero;stroke:#808080;stroke-width:2.08px;stroke-linejoin:miter;"/><g><text x="1742.42px" y="1518.83px" style="font-family:'Tahoma', sans-serif;font-size:50px;fill:#404040;">15</text></g><path d="M1769.5,1458.33l0,-8.333" style="fill:none;fill-rule:nonzero;stroke:#808080;stroke-width:2.08px;stroke-linejoin:miter;"/><g><text x="1854.5px" y="1518.83px" style="font-family:'Tahoma', sans-serif;font-size:50px;fill:#404040;">20</text></g><path d="M1881.58,1458.33l0,-8.333" style="fill:none;fill-rule:nonzero;stroke:#808080;stroke-width:2.08px;stroke-linejoin:miter;"/><g><text x="1966.54px" y="1518.83px" style="font-family:'Tahoma', sans-serif;font-size:50px;fill:#404040;">25</text></g><path d="M1993.62,1458.33l0,-8.333" style="fill:none;fill-rule:nonzero;stroke:#808080;stroke-width:2.08px;stroke-linejoin:miter;"/><g><text x="2078.58px" y="1518.83px" style="font-family:'Tahoma', sans-serif;font-size:50px;fill:#404040;">30</text></g><path d="M2105.67,1458.33l-0,-8.333" style="fill:none;fill-rule:nonzero;stroke:#808080;stroke-width:2.08px;stroke-linejoin:miter;"/><g><text x="2190.67px" y="1518.83px" style="font-family:'Tahoma', sans-serif;font-size:50px;fill:#404040;">35</text></g><path d="M2217.75,1458.33l0,-8.333" style="fill:none;fill-rule:nonzero;stroke:#808080;stroke-width:2.08px;stroke-linejoin:miter;"/><g><text x="2302.71px" y="1518.83px" style="font-family:'Tahoma', sans-serif;font-size:50px;fill:#404040;">40</text></g><path d="M2329.79,1458.33l-0,-8.333" style="fill:none;fill-rule:nonzero;stroke:#808080;stroke-width:2.08px;stroke-linejoin:miter;"/><g><text x="2414.79px" y="1518.83px" style="font-family:'Tahoma', sans-serif;font-size:50px;fill:#404040;">45</text></g><path d="M2441.88,1458.33l0,-8.333" style="fill:none;fill-rule:nonzero;stroke:#808080;stroke-width:2.08px;stroke-linejoin:miter;"/><g><text x="2526.83px" y="1518.83px" style="font-family:'Tahoma', sans-serif;font-size:50px;fill:#404040;">50</text></g><path d="M2553.92,1458.33l-0,-8.333" style="fill:none;fill-rule:nonzero;stroke:#808080;stroke-width:2.08px;stroke-linejoin:miter;"/><g><text x="1412.5px" y="1598.29px" style="font-family:'Tahoma-Bold', 'Tahoma', sans-serif;font-weight:700;font-size:58.333px;fill:#404040;">X</text></g><path d="M233.333,41.667l0,1391.67" style="fill:none;fill-rule:nonzero;stroke:#808080;stroke-width:2.08px;stroke-linejoin:miter;"/><g><text x="137.5px" y="1417.38px" style="font-family:'Tahoma', sans-serif;font-size:50px;fill:#404040;">-50</text></g><path d="M225,1396.42l8.333,-0" style="fill:none;fill-rule:nonzero;stroke:#808080;stroke-width:2.08px;stroke-linejoin:miter;"/><g><text x="137.5px" y="1285.58px" style="font-family:'Tahoma', sans-serif;font-size:50px;fill:#404040;">-40</text></g><path d="M225,1264.67l8.333,-0" style="fill:none;fill-rule:nonzero;stroke:#808080;stroke-width:2.08px;stroke-linejoin:miter;"/><g><text x="137.5px" y="1153.79px" style="font-family:'Tahoma', sans-serif;font-size:50px;fill:#404040;">-30</text></g><path d="M225,1132.88l8.333,0" style="fill:none;fill-rule:nonzero;stroke:#808080;stroke-width:2.08px;stroke-linejoin:miter;"/><g><text x="137.5px" y="1022px" style="font-family:'Tahoma', sans-serif;font-size:50px;fill:#404040;">-20</text></g><path d="M225,1001.08l8.333,0" style="fill:none;fill-rule:nonzero;stroke:#808080;stroke-width:2.08px;stroke-linejoin:miter;"/><g><text x="137.5px" y="890.208px" style="font-family:'Tahoma', sans-serif;font-size:50px;fill:#404040;">-10</text></g><path d="M225,869.292l8.333,-0" style="fill:none;fill-rule:nonzero;stroke:#808080;stroke-width:2.08px;stroke-linejoin:miter;"/><g><text x="179.167px" y="758.417px" style="font-family:'Tahoma', sans-serif;font-size:50px;fill:#404040;">0</text></g><path d="M225,737.5l8.333,0" style="fill:none;fill-rule:nonzero;stroke:#808080;stroke-width:2.08px;stroke-linejoin:miter;"/><g><text x="154.167px" y="626.625px" style="font-family:'Tahoma', sans-serif;font-size:50px;fill:#404040;">10</text></g><path d="M225,605.708l8.333,0" style="fill:none;fill-rule:nonzero;stroke:#808080;stroke-width:2.08px;stroke-linejoin:miter;"/><g><text x="154.167px" y="494.833px" style="font-family:'Tahoma', sans-serif;font-size:50px;fill:#404040;">20</text></g><path d="M225,473.917l8.333,-0" style="fill:none;fill-rule:nonzero;stroke:#808080;stroke-width:2.08px;stroke-linejoin:miter;"/><g><text x="154.167px" y="363.083px" style="font-family:'Tahoma', sans-serif;font-size:50px;fill:#404040;">30</text></g><path d="M225,342.125l8.333,0" style="fill:none;fill-rule:nonzero;stroke:#808080;stroke-width:2.08px;stroke-linejoin:miter;"/><g><text x="154.167px" y="231.292px" style="font-family:'Tahoma', sans-serif;font-size:50px;fill:#404040;">40</text></g><path d="M225,210.333l8.333,0" style="fill:none;fill-rule:nonzero;stroke:#808080;stroke-width:2.08px;stroke-linejoin:miter;"/><g><text x="154.167px" y="99.5px" style="font-family:'Tahoma', sans-serif;font-size:50px;fill:#404040;">50</text></g><path d="M225,78.583l8.333,0" style="fill:none;fill-rule:nonzero;stroke:#808080;stroke-width:2.08px;stroke-linejoin:miter;"/><g><path d="M62.25,716.583l24.667,14.667l17.708,0l0,10.625l-17.208,0l-25.167,14.875l0,-12.083l15.083,-8.334l-15.083,-8l0,-11.75Z" style="fill:#404040;fill-rule:nonzero;"/></g><clipPath id="_clip1"><rect x="250" y="41.667" width="2366.67" height="1391.67"/></clipPath><g clip-path="url(#_clip1)"><path d="M312.75,41.667l0,1391.67" style="fill:none;fill-rule:nonzero;stroke:#fff;stroke-width:2.08px;stroke-linecap:butt;stroke-miterlimit:4;stroke-dasharray:8.33,8.33;"/></g><clipPath id="_clip2"><rect x="250" y="41.667" width="2366.67" height="1391.67"/></clipPath><g clip-path="url(#_clip2)"><path d="M424.792,41.667l-0,1391.67" style="fill:none;fill-rule:nonzero;stroke:#fff;stroke-width:2.08px;stroke-linecap:butt;stroke-miterlimit:4;stroke-dasharray:8.33,8.33;"/></g><clipPath id="_clip3"><rect x="250" y="41.667" width="2366.67" height="1391.67"/></clipPath><g clip-path="url(#_clip3)"><path d="M536.875,41.667l0,1391.67" style="fill:none;fill-rule:nonzero;stroke:#fff;stroke-width:2.08px;stroke-linecap:butt;stroke-miterlimit:4;stroke-dasharray:8.33,8.33;"/></g><clipPath id="_clip4"><rect x="250" y="41.667" width="2366.67" height="1391.67"/></clipPath><g clip-path="url(#_clip4)"><path d="M648.917,41.667l-0,1391.67" style="fill:none;fill-rule:nonzero;stroke:#fff;stroke-width:2.08px;stroke-linecap:butt;stroke-miterlimit:4;stroke-dasharray:8.33,8.33;"/></g><clipPath id="_clip5"><rect x="250" y="41.667" width="2366.67" height="1391.67"/></clipPath><g clip-path="url(#_clip5)"><path d="M761,41.667l0,1391.67" style="fill:none;fill-rule:nonzero;stroke:#fff;stroke-width:2.08px;stroke-linecap:butt;stroke-miterlimit:4;stroke-dasharray:8.33,8.33;"/></g><clipPath id="_clip6"><rect x="250" y="41.667" width="2366.67" height="1391.67"/></clipPath><g clip-path="url(#_clip6)"><path d="M873.042,41.667l-0,1391.67" style="fill:none;fill-rule:nonzero;stroke:#fff;stroke-width:2.08px;stroke-linecap:butt;stroke-miterlimit:4;stroke-dasharray:8.33,8.33;"/></g><clipPath id="_clip7"><rect x="250" y="41.667" width="2366.67" height="1391.67"/></clipPath><g clip-path="url(#_clip7)"><path d="M985.083,41.667l0,1391.67" style="fill:none;fill-rule:nonzero;stroke:#fff;stroke-width:2.08px;stroke-linecap:butt;stroke-miterlimit:4;stroke-dasharray:8.33,8.33;"/></g><clipPath id="_clip8"><rect x="250" y="41.667" width="2366.67" height="1391.67"/></clipPath><g clip-path="url(#_clip8)"><path d="M1097.17,41.667l-0,1391.67" style="fill:none;fill-rule:nonzero;stroke:#fff;stroke-width:2.08px;stroke-linecap:butt;stroke-miterlimit:4;stroke-dasharray:8.33,8.33;"/></g><clipPath id="_clip9"><rect x="250" y="41.667" width="2366.67" height="1391.67"/></clipPath><g clip-path="url(#_clip9)"><path d="M1209.21,41.667l0,1391.67" style="fill:none;fill-rule:nonzero;stroke:#fff;stroke-width:2.08px;stroke-linecap:butt;stroke-miterlimit:4;stroke-dasharray:8.33,8.33;"/></g><clipPath id="_clip10"><rect x="250" y="41.667" width="2366.67" height="1391.67"/></clipPath><g clip-path="url(#_clip10)"><path d="M1321.29,41.667l-0,1391.67" style="fill:none;fill-rule:nonzero;stroke:#fff;stroke-width:2.08px;stroke-linecap:butt;stroke-miterlimit:4;stroke-dasharray:8.33,8.33;"/></g><clipPath id="_clip11"><rect x="250" y="41.667" width="2366.67" height="1391.67"/></clipPath><g clip-path="url(#_clip11)"><path d="M1433.33,41.667l0,1391.67" style="fill:none;fill-rule:nonzero;stroke:#fff;stroke-width:2.08px;stroke-linecap:butt;stroke-miterlimit:4;stroke-dasharray:8.33,8.33;"/></g><clipPath id="_clip12"><rect x="250" y="41.667" width="2366.67" height="1391.67"/></clipPath><g clip-path="url(#_clip12)"><path d="M1545.38,41.667l0,1391.67" style="fill:none;fill-rule:nonzero;stroke:#fff;stroke-width:2.08px;stroke-linecap:butt;stroke-miterlimit:4;stroke-dasharray:8.33,8.33;"/></g><clipPath id="_clip13"><rect x="250" y="41.667" width="2366.67" height="1391.67"/></clipPath><g clip-path="url(#_clip13)"><path d="M1657.46,41.667l0,1391.67" style="fill:none;fill-rule:nonzero;stroke:#fff;stroke-width:2.08px;stroke-linecap:butt;stroke-miterlimit:4;stroke-dasharray:8.33,8.33;"/></g><clipPath id="_clip14"><rect x="250" y="41.667" width="2366.67" height="1391.67"/></clipPath><g clip-path="url(#_clip14)"><path d="M1769.5,41.667l0,1391.67" style="fill:none;fill-rule:nonzero;stroke:#fff;stroke-width:2.08px;stroke-linecap:butt;stroke-miterlimit:4;stroke-dasharray:8.33,8.33;"/></g><clipPath id="_clip15"><rect x="250" y="41.667" width="2366.67" height="1391.67"/></clipPath><g clip-path="url(#_clip15)"><path d="M1881.58,41.667l0,1391.67" style="fill:none;fill-rule:nonzero;stroke:#fff;stroke-width:2.08px;stroke-linecap:butt;stroke-miterlimit:4;stroke-dasharray:8.33,8.33;"/></g><clipPath id="_clip16"><rect x="250" y="41.667" width="2366.67" height="1391.67"/></clipPath><g clip-path="url(#_clip16)"><path d="M1993.62,41.667l0,1391.67" style="fill:none;fill-rule:nonzero;stroke:#fff;stroke-width:2.08px;stroke-linecap:butt;stroke-miterlimit:4;stroke-dasharray:8.33,8.33;"/></g><clipPath id="_clip17"><rect x="250" y="41.667" width="2366.67" height="1391.67"/></clipPath><g clip-path="url(#_clip17)"><path d="M2105.67,41.667l-0,1391.67" style="fill:none;fill-rule:nonzero;stroke:#fff;stroke-width:2.08px;stroke-linecap:butt;stroke-miterlimit:4;stroke-dasharray:8.33,8.33;"/></g><clipPath id="_clip18"><rect x="250" y="41.667" width="2366.67" height="1391.67"/></clipPath><g clip-path="url(#_clip18)"><path d="M2217.75,41.667l0,1391.67" style="fill:none;fill-rule:nonzero;stroke:#fff;stroke-width:2.08px;stroke-linecap:butt;stroke-miterlimit:4;stroke-dasharray:8.33,8.33;"/></g><clipPath id="_clip19"><rect x="250" y="41.667" width="2366.67" height="1391.67"/></clipPath><g clip-path="url(#_clip19)"><path d="M2329.79,41.667l-0,1391.67" style="fill:none;fill-rule:nonzero;stroke:#fff;stroke-width:2.08px;stroke-linecap:butt;stroke-miterlimit:4;stroke-dasharray:8.33,8.33;"/></g><clipPath id="_clip20"><rect x="250" y="41.667" width="2366.67" height="1391.67"/></clipPath><g clip-path="url(#_clip20)"><path d="M2441.88,41.667l0,1391.67" style="fill:none;fill-rule:nonzero;stroke:#fff;stroke-width:2.08px;stroke-linecap:butt;stroke-miterlimit:4;stroke-dasharray:8.33,8.33;"/></g><clipPath id="_clip21"><rect x="250" y="41.667" width="2366.67" height="1391.67"/></clipPath><g clip-path="url(#_clip21)"><path d="M2553.92,41.667l-0,1391.67" style="fill:none;fill-rule:nonzero;stroke:#fff;stroke-width:2.08px;stroke-linecap:butt;stroke-miterlimit:4;stroke-dasharray:8.33,8.33;"/></g><clipPath id="_clip22"><rect x="250" y="41.667" width="2366.67" height="1391.67"/></clipPath><g clip-path="url(#_clip22)"><path d="M250,1396.42l2366.67,-0" style="fill:none;fill-rule:nonzero;stroke:#fff;stroke-width:2.08px;stroke-linecap:butt;stroke-miterlimit:4;stroke-dasharray:8.33,8.33;"/></g><clipPath id="_clip23"><rect x="250" y="41.667" width="2366.67" height="1391.67"/></clipPath><g clip-path="url(#_clip23)"><path d="M250,1264.67l2366.67,-0" style="fill:none;fill-rule:nonzero;stroke:#fff;stroke-width:2.08px;stroke-linecap:butt;stroke-miterlimit:4;stroke-dasharray:8.33,8.33;"/></g><clipPath id="_clip24"><rect x="250" y="41.667" width="2366.67" height="1391.67"/></clipPath><g clip-path="url(#_clip24)"><path d="M250,1132.88l2366.67,0" style="fill:none;fill-rule:nonzero;stroke:#fff;stroke-width:2.08px;stroke-linecap:butt;stroke-miterlimit:4;stroke-dasharray:8.33,8.33;"/></g><clipPath id="_clip25"><rect x="250" y="41.667" width="2366.67" height="1391.67"/></clipPath><g clip-path="url(#_clip25)"><path d="M250,1001.08l2366.67,0" style="fill:none;fill-rule:nonzero;stroke:#fff;stroke-width:2.08px;stroke-linecap:butt;stroke-miterlimit:4;stroke-dasharray:8.33,8.33;"/></g><clipPath id="_clip26"><rect x="250" y="41.667" width="2366.67" height="1391.67"/></clipPath><g clip-path="url(#_clip26)"><path d="M250,869.292l2366.67,-0" style="fill:none;fill-rule:nonzero;stroke:#fff;stroke-width:2.08px;stroke-linecap:butt;stroke-miterlimit:4;stroke-dasharray:8.33,8.33;"/></g><clipPath id="_clip27"><rect x="250" y="41.667" width="2366.67" height="1391.67"/></clipPath><g clip-path="url(#_clip27)"><path d="M250,737.5l2366.67,0" style="fill:none;fill-rule:nonzero;stroke:#fff;stroke-width:2.08px;stroke-linecap:butt;stroke-miterlimit:4;stroke-dasharray:8.33,8.33;"/></g><clipPath id="_clip28"><rect x="250" y="41.667" width="2366.67" height="1391.67"/></clipPath><g clip-path="url(#_clip28)"><path d="M250,605.708l2366.67,0" style="fill:none;fill-rule:nonzero;stroke:#fff;stroke-width:2.08px;stroke-linecap:butt;stroke-miterlimit:4;stroke-dasharray:8.33,8.33;"/></g><clipPath id="_clip29"><rect x="250" y="41.667" width="2366.67" height="1391.67"/></clipPath><g clip-path="url(#_clip29)"><path d="M250,473.917l2366.67,-0" style="fill:none;fill-rule:nonzero;stroke:#fff;stroke-width:2.08px;stroke-linecap:butt;stroke-miterlimit:4;stroke-dasharray:8.33,8.33;"/></g><clipPath id="_clip30"><rect x="250" y="41.667" width="2366.67" height="1391.67"/></clipPath><g clip-path="url(#_clip30)"><path d="M250,342.125l2366.67,0" style="fill:none;fill-rule:nonzero;stroke:#fff;stroke-width:2.08px;stroke-linecap:butt;stroke-miterlimit:4;stroke-dasharray:8.33,8.33;"/></g><clipPath id="_clip31"><rect x="250" y="41.667" width="2366.67" height="1391.67"/></clipPath><g clip-path="url(#_clip31)"><path d="M250,210.333l2366.67,0" style="fill:none;fill-rule:nonzero;stroke:#fff;stroke-width:2.08px;stroke-linecap:butt;stroke-miterlimit:4;stroke-dasharray:8.33,8.33;"/></g><clipPath id="_clip32"><rect x="250" y="41.667" width="2366.67" height="1391.67"/></clipPath><g clip-path="url(#_clip32)"><path d="M250,78.583l2366.67,0" style="fill:none;fill-rule:nonzero;stroke:#fff;stroke-width:2.08px;stroke-linecap:butt;stroke-miterlimit:4;stroke-dasharray:8.33,8.33;"/></g><path d="M1590.21,895.625l134.459,158.167" style="fill:none;fill-rule:nonzero;stroke:#ffafaf;stroke-width:12.5px;"/><path d="M1724.67,1053.79l560.291,92.25" style="fill:none;fill-rule:nonzero;stroke:#ffafaf;stroke-width:12.5px;"/><path d="M2284.96,1146.04l-694.75,-250.417" style="fill:none;fill-rule:nonzero;stroke:#ffafaf;stroke-width:12.5px;"/><path d="M1747.08,697.958l291.375,-26.333" style="fill:none;fill-rule:nonzero;stroke:#5ff;stroke-width:12.5px;"/><path d="M2038.46,671.625l313.75,-276.75" style="fill:none;fill-rule:nonzero;stroke:#5ff;stroke-width:12.5px;"/><path d="M2352.21,394.875l-605.125,303.083" style="fill:none;fill-rule:nonzero;stroke:#5ff;stroke-width:12.5px;"/><path d="M1478.17,553l44.833,-184.5" style="fill:none;fill-rule:nonzero;stroke:#f5f;stroke-width:12.5px;"/><path d="M1523,368.5l-358.625,-250.417" style="fill:none;fill-rule:nonzero;stroke:#f5f;stroke-width:12.5px;"/><path d="M1164.38,118.083l313.792,434.917" style="fill:none;fill-rule:nonzero;stroke:#f5f;stroke-width:12.5px;"/><path d="M1276.46,895.625l-156.875,158.167" style="fill:none;fill-rule:nonzero;stroke:#ff5;stroke-width:12.5px;"/><path d="M1119.58,1053.79l156.875,316.291" style="fill:none;fill-rule:nonzero;stroke:#ff5;stroke-width:12.5px;"/><path d="M1276.46,1370.08l0,-474.458" style="fill:none;fill-rule:nonzero;stroke:#ff5;stroke-width:12.5px;"/><path d="M1702.29,829.75l268.916,92.25" style="fill:none;fill-rule:nonzero;stroke:#5f5;stroke-width:12.5px;"/><path d="M1971.21,922l537.875,-92.25" style="fill:none;fill-rule:nonzero;stroke:#5f5;stroke-width:12.5px;"/><path d="M2509.08,829.75l-806.791,0" style="fill:none;fill-rule:nonzero;stroke:#5f5;stroke-width:12.5px;"/><path d="M1590.21,579.375l156.875,-158.167" style="fill:none;fill-rule:nonzero;stroke:#55f;stroke-width:12.5px;"/><path d="M1747.08,421.208l-156.875,-316.291" style="fill:none;fill-rule:nonzero;stroke:#55f;stroke-width:12.5px;"/><path d="M1590.21,104.917l0,474.458" style="fill:none;fill-rule:nonzero;stroke:#55f;stroke-width:12.5px;"/><path d="M1164.38,645.25l-268.917,-92.25" style="fill:none;fill-rule:nonzero;stroke:#f55;stroke-width:12.5px;"/><path d="M895.458,553l-537.875,92.25" style="fill:none;fill-rule:nonzero;stroke:#f55;stroke-width:12.5px;"/><path d="M357.583,645.25l806.792,0" style="fill:none;fill-rule:nonzero;stroke:#f55;stroke-width:12.5px;"/><rect x="250" y="41.667" width="2366.67" height="1391.67" style="fill:none;stroke:#000;stroke-width:2.08px;stroke-linecap:round;stroke-linejoin:round;"/></svg>