<?xml version="1.0" encoding="UTF-8" standalone="no"?><!DOCTYPE svg PUBLIC "-//W3C//DTD SVG 1.1//EN" "http://www.w3.org/Graphics/SVG/1.1/DTD/svg11.dtd"><svg width="100%" height="100%" viewBox="0 0 2667 2000" version="1.1" xmlns="http://www.w3.org/2000/svg" xmlns:xlink="http://www.w3.org/1999/xlink" xml:space="preserve" xmlns:serif="http://www.serif.com/" style="fill-rule:evenodd;clip-rule:evenodd;stroke-linecap:square;stroke-linejoin:bevel;stroke-miterlimit:10;"><rect x="0" y="0" width="2666.67" height="2000" style="fill:#fff;"/><rect x="4.167" y="1820.83" width="2658.33" height="175" style="fill:#fff;"/><g><path d="M16.667,1864.58l58.333,0" style="fill:none;fill-rule:nonzero;stroke:#f55;stroke-width:12.5px;"/></g><g><text x="91.667px" y="1883.38px" style="font-family:'Tahoma', sans-serif;font-size:50px;fill:#404040;">P<tspan x="118.083px 145.231px " y="1883.38px 1883.38px ">oi</tspan>nt[] points = {new P<tspan x="613.298px 640.446px " y="1883.38px 1883.38px ">oi</tspan>nt(7<tspan x="739.25px 754.386px " y="1883.38px 1883.38px ">,4</tspan>),...<tspan x="858.927px " y="1883.38px ">}</tspan></text></g><g><path d="M916.667,1864.58l58.333,0" style="fill:none;fill-rule:nonzero;stroke:#55f;stroke-width:12.5px;"/></g><g><text x="991.667px" y="1883.38px" style="font-family:'Tahoma', sans-serif;font-size:50px;fill:#404040;">f<tspan x="1007.1px 1034.25px " y="1883.38px 1883.38px ">or</tspan>(P<tspan x="1097.82px 1124.97px " y="1883.38px 1883.38px ">oi</tspan>nt point : points){point.r<tspan x="1676.38px 1702.7px " y="1883.38px 1883.38px ">eﬂ</tspan>ect();}</text></g><g><path d="M16.667,1952.08l58.333,0" style="fill:none;fill-rule:nonzero;stroke:#5f5;stroke-width:12.5px;"/></g><g><text x="91.667px" y="1970.88px" style="font-family:'Tahoma', sans-serif;font-size:50px;fill:#404040;">f<tspan x="107.096px 134.245px " y="1970.88px 1970.88px ">or</tspan>(P<tspan x="197.819px 224.967px " y="1970.88px 1970.88px ">oi</tspan>nt point : points){point.r<tspan x="776.383px 802.702px " y="1970.88px 1970.88px ">eﬂ</tspan>ect(7);}</text></g><g><path d="M1029.17,1952.08l58.333,0" style="fill:none;fill-rule:nonzero;stroke:#ff5;stroke-width:12.5px;"/></g><g><text x="1104.17px" y="1970.88px" style="font-family:'Tahoma', sans-serif;font-size:50px;fill:#404040;">f<tspan x="1119.6px 1146.75px " y="1970.88px 1970.88px ">or</tspan>(P<tspan x="1210.32px 1237.47px " y="1970.88px 1970.88px ">oi</tspan>nt point : points){point.glide(7<tspan x="1918.38px 1933.51px " y="1970.88px 1970.88px ">,4</tspan>);}</text></g><rect x="233.333" y="41.667" width="2383.33" height="1566.67" style="fill:#c0c0c0;"/><path d="M233.333,1625l2383.33,0" style="fill:none;fill-rule:nonzero;stroke:#808080;stroke-width:2.08px;stroke-linejoin:miter;"/><g><text x="248.875px" y="1693.83px" style="font-family:'Tahoma', sans-serif;font-size:50px;fill:#404040;">-4</text></g><path d="M271.792,1633.33l-0,-8.333" style="fill:none;fill-rule:nonzero;stroke:#808080;stroke-width:2.08px;stroke-linejoin:miter;"/><g><text x="388.625px" y="1693.83px" style="font-family:'Tahoma', sans-serif;font-size:50px;fill:#404040;">-2</text></g><path d="M411.542,1633.33l-0,-8.333" style="fill:none;fill-rule:nonzero;stroke:#808080;stroke-width:2.08px;stroke-linejoin:miter;"/><g><text x="536.75px" y="1693.83px" style="font-family:'Tahoma', sans-serif;font-size:50px;fill:#404040;">0</text></g><path d="M551.333,1633.33l0,-8.333" style="fill:none;fill-rule:nonzero;stroke:#808080;stroke-width:2.08px;stroke-linejoin:miter;"/><g><text x="676.542px" y="1693.83px" style="font-family:'Tahoma', sans-serif;font-size:50px;fill:#404040;">2</text></g><path d="M691.125,1633.33l0,-8.333" style="fill:none;fill-rule:nonzero;stroke:#808080;stroke-width:2.08px;stroke-linejoin:miter;"/><g><text x="816.333px" y="1693.83px" style="font-family:'Tahoma', sans-serif;font-size:50px;fill:#404040;">4</text></g><path d="M830.917,1633.33l-0,-8.333" style="fill:none;fill-rule:nonzero;stroke:#808080;stroke-width:2.08px;stroke-linejoin:miter;"/><g><text x="956.125px" y="1693.83px" style="font-family:'Tahoma', sans-serif;font-size:50px;fill:#404040;">6</text></g><path d="M970.708,1633.33l0,-8.333" style="fill:none;fill-rule:nonzero;stroke:#808080;stroke-width:2.08px;stroke-linejoin:miter;"/><g><text x="1095.92px" y="1693.83px" style="font-family:'Tahoma', sans-serif;font-size:50px;fill:#404040;">8</text></g><path d="M1110.5,1633.33l0,-8.333" style="fill:none;fill-rule:nonzero;stroke:#808080;stroke-width:2.08px;stroke-linejoin:miter;"/><g><text x="1223.17px" y="1693.83px" style="font-family:'Tahoma', sans-serif;font-size:50px;fill:#404040;">10</text></g><path d="M1250.25,1633.33l0,-8.333" style="fill:none;fill-rule:nonzero;stroke:#808080;stroke-width:2.08px;stroke-linejoin:miter;"/><g><text x="1362.96px" y="1693.83px" style="font-family:'Tahoma', sans-serif;font-size:50px;fill:#404040;">12</text></g><path d="M1390.04,1633.33l-0,-8.333" style="fill:none;fill-rule:nonzero;stroke:#808080;stroke-width:2.08px;stroke-linejoin:miter;"/><g><text x="1502.75px" y="1693.83px" style="font-family:'Tahoma', sans-serif;font-size:50px;fill:#404040;">14</text></g><path d="M1529.83,1633.33l0,-8.333" style="fill:none;fill-rule:nonzero;stroke:#808080;stroke-width:2.08px;stroke-linejoin:miter;"/><g><text x="1642.54px" y="1693.83px" style="font-family:'Tahoma', sans-serif;font-size:50px;fill:#404040;">16</text></g><path d="M1669.62,1633.33l0,-8.333" style="fill:none;fill-rule:nonzero;stroke:#808080;stroke-width:2.08px;stroke-linejoin:miter;"/><g><text x="1782.33px" y="1693.83px" style="font-family:'Tahoma', sans-serif;font-size:50px;fill:#404040;">18</text></g><path d="M1809.42,1633.33l-0,-8.333" style="fill:none;fill-rule:nonzero;stroke:#808080;stroke-width:2.08px;stroke-linejoin:miter;"/><g><text x="1922.12px" y="1693.83px" style="font-family:'Tahoma', sans-serif;font-size:50px;fill:#404040;">20</text></g><path d="M1949.21,1633.33l0,-8.333" style="fill:none;fill-rule:nonzero;stroke:#808080;stroke-width:2.08px;stroke-linejoin:miter;"/><g><text x="2061.88px" y="1693.83px" style="font-family:'Tahoma', sans-serif;font-size:50px;fill:#404040;">22</text></g><path d="M2088.96,1633.33l0,-8.333" style="fill:none;fill-rule:nonzero;stroke:#808080;stroke-width:2.08px;stroke-linejoin:miter;"/><g><text x="2201.67px" y="1693.83px" style="font-family:'Tahoma', sans-serif;font-size:50px;fill:#404040;">24</text></g><path d="M2228.75,1633.33l0,-8.333" style="fill:none;fill-rule:nonzero;stroke:#808080;stroke-width:2.08px;stroke-linejoin:miter;"/><g><text x="2341.46px" y="1693.83px" style="font-family:'Tahoma', sans-serif;font-size:50px;fill:#404040;">26</text></g><path d="M2368.54,1633.33l-0,-8.333" style="fill:none;fill-rule:nonzero;stroke:#808080;stroke-width:2.08px;stroke-linejoin:miter;"/><g><text x="2481.25px" y="1693.83px" style="font-family:'Tahoma', sans-serif;font-size:50px;fill:#404040;">28</text></g><path d="M2508.33,1633.33l0,-8.333" style="fill:none;fill-rule:nonzero;stroke:#808080;stroke-width:2.08px;stroke-linejoin:miter;"/><g><text x="1404.17px" y="1773.29px" style="font-family:'Tahoma-Bold', 'Tahoma', sans-serif;font-weight:700;font-size:58.333px;fill:#404040;">X</text></g><path d="M216.667,41.667l-0,1566.67" style="fill:none;fill-rule:nonzero;stroke:#808080;stroke-width:2.08px;stroke-linejoin:miter;"/><g><text x="162.5px" y="1629.25px" style="font-family:'Tahoma', sans-serif;font-size:50px;fill:#404040;">0</text></g><path d="M208.333,1608.33l8.334,0" style="fill:none;fill-rule:nonzero;stroke:#808080;stroke-width:2.08px;stroke-linejoin:miter;"/><g><text x="162.5px" y="1544px" style="font-family:'Tahoma', sans-serif;font-size:50px;fill:#404040;">2</text></g><path d="M208.333,1523.08l8.334,0" style="fill:none;fill-rule:nonzero;stroke:#808080;stroke-width:2.08px;stroke-linejoin:miter;"/><g><text x="162.5px" y="1458.75px" style="font-family:'Tahoma', sans-serif;font-size:50px;fill:#404040;">4</text></g><path d="M208.333,1437.79l8.334,-0" style="fill:none;fill-rule:nonzero;stroke:#808080;stroke-width:2.08px;stroke-linejoin:miter;"/><g><text x="162.5px" y="1373.46px" style="font-family:'Tahoma', sans-serif;font-size:50px;fill:#404040;">6</text></g><path d="M208.333,1352.54l8.334,-0" style="fill:none;fill-rule:nonzero;stroke:#808080;stroke-width:2.08px;stroke-linejoin:miter;"/><g><text x="162.5px" y="1288.21px" style="font-family:'Tahoma', sans-serif;font-size:50px;fill:#404040;">8</text></g><path d="M208.333,1267.29l8.334,-0" style="fill:none;fill-rule:nonzero;stroke:#808080;stroke-width:2.08px;stroke-linejoin:miter;"/><g><text x="137.5px" y="1202.96px" style="font-family:'Tahoma', sans-serif;font-size:50px;fill:#404040;">10</text></g><path d="M208.333,1182.04l8.334,-0" style="fill:none;fill-rule:nonzero;stroke:#808080;stroke-width:2.08px;stroke-linejoin:miter;"/><g><text x="137.5px" y="1117.71px" style="font-family:'Tahoma', sans-serif;font-size:50px;fill:#404040;">12</text></g><path d="M208.333,1096.75l8.334,0" style="fill:none;fill-rule:nonzero;stroke:#808080;stroke-width:2.08px;stroke-linejoin:miter;"/><g><text x="137.5px" y="1032.42px" style="font-family:'Tahoma', sans-serif;font-size:50px;fill:#404040;">14</text></g><path d="M208.333,1011.5l8.334,0" style="fill:none;fill-rule:nonzero;stroke:#808080;stroke-width:2.08px;stroke-linejoin:miter;"/><g><text x="137.5px" y="947.167px" style="font-family:'Tahoma', sans-serif;font-size:50px;fill:#404040;">16</text></g><path d="M208.333,926.25l8.334,0" style="fill:none;fill-rule:nonzero;stroke:#808080;stroke-width:2.08px;stroke-linejoin:miter;"/><g><text x="137.5px" y="861.917px" style="font-family:'Tahoma', sans-serif;font-size:50px;fill:#404040;">18</text></g><path d="M208.333,841l8.334,0" style="fill:none;fill-rule:nonzero;stroke:#808080;stroke-width:2.08px;stroke-linejoin:miter;"/><g><text x="137.5px" y="776.667px" style="font-family:'Tahoma', sans-serif;font-size:50px;fill:#404040;">20</text></g><path d="M208.333,755.708l8.334,0" style="fill:none;fill-rule:nonzero;stroke:#808080;stroke-width:2.08px;stroke-linejoin:miter;"/><g><text x="137.5px" y="691.375px" style="font-family:'Tahoma', sans-serif;font-size:50px;fill:#404040;">22</text></g><path d="M208.333,670.458l8.334,0" style="fill:none;fill-rule:nonzero;stroke:#808080;stroke-width:2.08px;stroke-linejoin:miter;"/><g><text x="137.5px" y="606.125px" style="font-family:'Tahoma', sans-serif;font-size:50px;fill:#404040;">24</text></g><path d="M208.333,585.208l8.334,0" style="fill:none;fill-rule:nonzero;stroke:#808080;stroke-width:2.08px;stroke-linejoin:miter;"/><g><text x="137.5px" y="520.875px" style="font-family:'Tahoma', sans-serif;font-size:50px;fill:#404040;">26</text></g><path d="M208.333,499.958l8.334,0" style="fill:none;fill-rule:nonzero;stroke:#808080;stroke-width:2.08px;stroke-linejoin:miter;"/><g><text x="137.5px" y="435.625px" style="font-family:'Tahoma', sans-serif;font-size:50px;fill:#404040;">28</text></g><path d="M208.333,414.667l8.334,-0" style="fill:none;fill-rule:nonzero;stroke:#808080;stroke-width:2.08px;stroke-linejoin:miter;"/><g><text x="137.5px" y="350.333px" style="font-family:'Tahoma', sans-serif;font-size:50px;fill:#404040;">30</text></g><path d="M208.333,329.417l8.334,-0" style="fill:none;fill-rule:nonzero;stroke:#808080;stroke-width:2.08px;stroke-linejoin:miter;"/><g><text x="137.5px" y="265.083px" style="font-family:'Tahoma', sans-serif;font-size:50px;fill:#404040;">32</text></g><path d="M208.333,244.167l8.334,-0" style="fill:none;fill-rule:nonzero;stroke:#808080;stroke-width:2.08px;stroke-linejoin:miter;"/><g><text x="137.5px" y="179.833px" style="font-family:'Tahoma', sans-serif;font-size:50px;fill:#404040;">34</text></g><path d="M208.333,158.917l8.334,-0" style="fill:none;fill-rule:nonzero;stroke:#808080;stroke-width:2.08px;stroke-linejoin:miter;"/><g><text x="137.5px" y="94.542px" style="font-family:'Tahoma', sans-serif;font-size:50px;fill:#404040;">36</text></g><path d="M208.333,73.625l8.334,0" style="fill:none;fill-rule:nonzero;stroke:#808080;stroke-width:2.08px;stroke-linejoin:miter;"/><g><path d="M62.25,804.083l24.667,14.667l17.708,0l0,10.625l-17.208,0l-25.167,14.875l0,-12.083l15.083,-8.334l-15.083,-8l0,-11.75Z" style="fill:#404040;fill-rule:nonzero;"/></g><clipPath id="_clip1"><rect x="233.333" y="41.667" width="2383.33" height="1566.67"/></clipPath><g clip-path="url(#_clip1)"><path d="M271.792,41.667l-0,1566.67" style="fill:none;fill-rule:nonzero;stroke:#fff;stroke-width:2.08px;stroke-linecap:butt;stroke-miterlimit:4;stroke-dasharray:8.33,8.33;"/></g><clipPath id="_clip2"><rect x="233.333" y="41.667" width="2383.33" height="1566.67"/></clipPath><g clip-path="url(#_clip2)"><path d="M411.542,41.667l-0,1566.67" style="fill:none;fill-rule:nonzero;stroke:#fff;stroke-width:2.08px;stroke-linecap:butt;stroke-miterlimit:4;stroke-dasharray:8.33,8.33;"/></g><clipPath id="_clip3"><rect x="233.333" y="41.667" width="2383.33" height="1566.67"/></clipPath><g clip-path="url(#_clip3)"><path d="M551.333,41.667l0,1566.67" style="fill:none;fill-rule:nonzero;stroke:#fff;stroke-width:2.08px;stroke-linecap:butt;stroke-miterlimit:4;stroke-dasharray:8.33,8.33;"/></g><clipPath id="_clip4"><rect x="233.333" y="41.667" width="2383.33" height="1566.67"/></clipPath><g clip-path="url(#_clip4)"><path d="M691.125,41.667l0,1566.67" style="fill:none;fill-rule:nonzero;stroke:#fff;stroke-width:2.08px;stroke-linecap:butt;stroke-miterlimit:4;stroke-dasharray:8.33,8.33;"/></g><clipPath id="_clip5"><rect x="233.333" y="41.667" width="2383.33" height="1566.67"/></clipPath><g clip-path="url(#_clip5)"><path d="M830.917,41.667l-0,1566.67" style="fill:none;fill-rule:nonzero;stroke:#fff;stroke-width:2.08px;stroke-linecap:butt;stroke-miterlimit:4;stroke-dasharray:8.33,8.33;"/></g><clipPath id="_clip6"><rect x="233.333" y="41.667" width="2383.33" height="1566.67"/></clipPath><g clip-path="url(#_clip6)"><path d="M970.708,41.667l0,1566.67" style="fill:none;fill-rule:nonzero;stroke:#fff;stroke-width:2.08px;stroke-linecap:butt;stroke-miterlimit:4;stroke-dasharray:8.33,8.33;"/></g><clipPath id="_clip7"><rect x="233.333" y="41.667" width="2383.33" height="1566.67"/></clipPath><g clip-path="url(#_clip7)"><path d="M1110.5,41.667l0,1566.67" style="fill:none;fill-rule:nonzero;stroke:#fff;stroke-width:2.08px;stroke-linecap:butt;stroke-miterlimit:4;stroke-dasharray:8.33,8.33;"/></g><clipPath id="_clip8"><rect x="233.333" y="41.667" width="2383.33" height="1566.67"/></clipPath><g clip-path="url(#_clip8)"><path d="M1250.25,41.667l0,1566.67" style="fill:none;fill-rule:nonzero;stroke:#fff;stroke-width:2.08px;stroke-linecap:butt;stroke-miterlimit:4;stroke-dasharray:8.33,8.33;"/></g><clipPath id="_clip9"><rect x="233.333" y="41.667" width="2383.33" height="1566.67"/></clipPath><g clip-path="url(#_clip9)"><path d="M1390.04,41.667l-0,1566.67" style="fill:none;fill-rule:nonzero;stroke:#fff;stroke-width:2.08px;stroke-linecap:butt;stroke-miterlimit:4;stroke-dasharray:8.33,8.33;"/></g><clipPath id="_clip10"><rect x="233.333" y="41.667" width="2383.33" height="1566.67"/></clipPath><g clip-path="url(#_clip10)"><path d="M1529.83,41.667l0,1566.67" style="fill:none;fill-rule:nonzero;stroke:#fff;stroke-width:2.08px;stroke-linecap:butt;stroke-miterlimit:4;stroke-dasharray:8.33,8.33;"/></g><clipPath id="_clip11"><rect x="233.333" y="41.667" width="2383.33" height="1566.67"/></clipPath><g clip-path="url(#_clip11)"><path d="M1669.62,41.667l0,1566.67" style="fill:none;fill-rule:nonzero;stroke:#fff;stroke-width:2.08px;stroke-linecap:butt;stroke-miterlimit:4;stroke-dasharray:8.33,8.33;"/></g><clipPath id="_clip12"><rect x="233.333" y="41.667" width="2383.33" height="1566.67"/></clipPath><g clip-path="url(#_clip12)"><path d="M1809.42,41.667l-0,1566.67" style="fill:none;fill-rule:nonzero;stroke:#fff;stroke-width:2.08px;stroke-linecap:butt;stroke-miterlimit:4;stroke-dasharray:8.33,8.33;"/></g><clipPath id="_clip13"><rect x="233.333" y="41.667" width="2383.33" height="1566.67"/></clipPath><g clip-path="url(#_clip13)"><path d="M1949.21,41.667l0,1566.67" style="fill:none;fill-rule:nonzero;stroke:#fff;stroke-width:2.08px;stroke-linecap:butt;stroke-miterlimit:4;stroke-dasharray:8.33,8.33;"/></g><clipPath id="_clip14"><rect x="233.333" y="41.667" width="2383.33" height="1566.67"/></clipPath><g clip-path="url(#_clip14)"><path d="M2088.96,41.667l0,1566.67" style="fill:none;fill-rule:nonzero;stroke:#fff;stroke-width:2.08px;stroke-linecap:butt;stroke-miterlimit:4;stroke-dasharray:8.33,8.33;"/></g><clipPath id="_clip15"><rect x="233.333" y="41.667" width="2383.33" height="1566.67"/></clipPath><g clip-path="url(#_clip15)"><path d="M2228.75,41.667l0,1566.67" style="fill:none;fill-rule:nonzero;stroke:#fff;stroke-width:2.08px;stroke-linecap:butt;stroke-miterlimit:4;stroke-dasharray:8.33,8.33;"/></g><clipPath id="_clip16"><rect x="233.333" y="41.667" width="2383.33" height="1566.67"/></clipPath><g clip-path="url(#_clip16)"><path d="M2368.54,41.667l-0,1566.67" style="fill:none;fill-rule:nonzero;stroke:#fff;stroke-width:2.08px;stroke-linecap:butt;stroke-miterlimit:4;stroke-dasharray:8.33,8.33;"/></g><clipPath id="_clip17"><rect x="233.333" y="41.667" width="2383.33" height="1566.67"/></clipPath><g clip-path="url(#_clip17)"><path d="M2508.33,41.667l0,1566.67" style="fill:none;fill-rule:nonzero;stroke:#fff;stroke-width:2.08px;stroke-linecap:butt;stroke-miterlimit:4;stroke-dasharray:8.33,8.33;"/></g><clipPath id="_clip18"><rect x="233.333" y="41.667" width="2383.33" height="1566.67"/></clipPath><g clip-path="url(#_clip18)"><path d="M233.333,1608.33l2383.33,0" style="fill:none;fill-rule:nonzero;stroke:#fff;stroke-width:2.08px;stroke-linecap:butt;stroke-miterlimit:4;stroke-dasharray:8.33,8.33;"/></g><clipPath id="_clip19"><rect x="233.333" y="41.667" width="2383.33" height="1566.67"/></clipPath><g clip-path="url(#_clip19)"><path d="M233.333,1523.08l2383.33,0" style="fill:none;fill-rule:nonzero;stroke:#fff;stroke-width:2.08px;stroke-linecap:butt;stroke-miterlimit:4;stroke-dasharray:8.33,8.33;"/></g><clipPath id="_clip20"><rect x="233.333" y="41.667" width="2383.33" height="1566.67"/></clipPath><g clip-path="url(#_clip20)"><path d="M233.333,1437.79l2383.33,-0" style="fill:none;fill-rule:nonzero;stroke:#fff;stroke-width:2.08px;stroke-linecap:butt;stroke-miterlimit:4;stroke-dasharray:8.33,8.33;"/></g><clipPath id="_clip21"><rect x="233.333" y="41.667" width="2383.33" height="1566.67"/></clipPath><g clip-path="url(#_clip21)"><path d="M233.333,1352.54l2383.33,-0" style="fill:none;fill-rule:nonzero;stroke:#fff;stroke-width:2.08px;stroke-linecap:butt;stroke-miterlimit:4;stroke-dasharray:8.33,8.33;"/></g><clipPath id="_clip22"><rect x="233.333" y="41.667" width="2383.33" height="1566.67"/></clipPath><g clip-path="url(#_clip22)"><path d="M233.333,1267.29l2383.33,-0" style="fill:none;fill-rule:nonzero;stroke:#fff;stroke-width:2.08px;stroke-linecap:butt;stroke-miterlimit:4;stroke-dasharray:8.33,8.33;"/></g><clipPath id="_clip23"><rect x="233.333" y="41.667" width="2383.33" height="1566.67"/></clipPath><g clip-path="url(#_clip23)"><path d="M233.333,1182.04l2383.33,-0" style="fill:none;fill-rule:nonzero;stroke:#fff;stroke-width:2.08px;stroke-linecap:butt;stroke-miterlimit:4;stroke-dasharray:8.33,8.33;"/></g><clipPath id="_clip24"><rect x="233.333" y="41.667" width="2383.33" height="1566.67"/></clipPath><g clip-path="url(#_clip24)"><path d="M233.333,1096.75l2383.33,0" style="fill:none;fill-rule:nonzero;stroke:#fff;stroke-width:2.08px;stroke-linecap:butt;stroke-miterlimit:4;stroke-dasharray:8.33,8.33;"/></g><clipPath id="_clip25"><rect x="233.333" y="41.667" width="2383.33" height="1566.67"/></clipPath><g clip-path="url(#_clip25)"><path d="M233.333,1011.5l2383.33,0" style="fill:none;fill-rule:nonzero;stroke:#fff;stroke-width:2.08px;stroke-linecap:butt;stroke-miterlimit:4;stroke-dasharray:8.33,8.33;"/></g><clipPath id="_clip26"><rect x="233.333" y="41.667" width="2383.33" height="1566.67"/></clipPath><g clip-path="url(#_clip26)"><path d="M233.333,926.25l2383.33,0" style="fill:none;fill-rule:nonzero;stroke:#fff;stroke-width:2.08px;stroke-linecap:butt;stroke-miterlimit:4;stroke-dasharray:8.33,8.33;"/></g><clipPath id="_clip27"><rect x="233.333" y="41.667" width="2383.33" height="1566.67"/></clipPath><g clip-path="url(#_clip27)"><path d="M233.333,841l2383.33,0" style="fill:none;fill-rule:nonzero;stroke:#fff;stroke-width:2.08px;stroke-linecap:butt;stroke-miterlimit:4;stroke-dasharray:8.33,8.33;"/></g><clipPath id="_clip28"><rect x="233.333" y="41.667" width="2383.33" height="1566.67"/></clipPath><g clip-path="url(#_clip28)"><path d="M233.333,755.708l2383.33,0" style="fill:none;fill-rule:nonzero;stroke:#fff;stroke-width:2.08px;stroke-linecap:butt;stroke-miterlimit:4;stroke-dasharray:8.33,8.33;"/></g><clipPath id="_clip29"><rect x="233.333" y="41.667" width="2383.33" height="1566.67"/></clipPath><g clip-path="url(#_clip29)"><path d="M233.333,670.458l2383.33,0" style="fill:none;fill-rule:nonzero;stroke:#fff;stroke-width:2.08px;stroke-linecap:butt;stroke-miterlimit:4;stroke-dasharray:8.33,8.33;"/></g><clipPath id="_clip30"><rect x="233.333" y="41.667" width="2383.33" height="1566.67"/></clipPath><g clip-path="url(#_clip30)"><path d="M233.333,585.208l2383.33,0" style="fill:none;fill-rule:nonzero;stroke:#fff;stroke-width:2.08px;stroke-linecap:butt;stroke-miterlimit:4;stroke-dasharray:8.33,8.33;"/></g><clipPath id="_clip31"><rect x="233.333" y="41.667" width="2383.33" height="1566.67"/></clipPath><g clip-path="url(#_clip31)"><path d="M233.333,499.958l2383.33,0" style="fill:none;fill-rule:nonzero;stroke:#fff;stroke-width:2.08px;stroke-linecap:butt;stroke-miterlimit:4;stroke-dasharray:8.33,8.33;"/></g><clipPath id="_clip32"><rect x="233.333" y="41.667" width="2383.33" height="1566.67"/></clipPath><g clip-path="url(#_clip32)"><path d="M233.333,414.667l2383.33,-0" style="fill:none;fill-rule:nonzero;stroke:#fff;stroke-width:2.08px;stroke-linecap:butt;stroke-miterlimit:4;stroke-dasharray:8.33,8.33;"/></g><clipPath id="_clip33"><rect x="233.333" y="41.667" width="2383.33" height="1566.67"/></clipPath><g clip-path="url(#_clip33)"><path d="M233.333,329.417l2383.33,-0" style="fill:none;fill-rule:nonzero;stroke:#fff;stroke-width:2.08px;stroke-linecap:butt;stroke-miterlimit:4;stroke-dasharray:8.33,8.33;"/></g><clipPath id="_clip34"><rect x="233.333" y="41.667" width="2383.33" height="1566.67"/></clipPath><g clip-path="url(#_clip34)"><path d="M233.333,244.167l2383.33,-0" style="fill:none;fill-rule:nonzero;stroke:#fff;stroke-width:2.08px;stroke-linecap:butt;stroke-miterlimit:4;stroke-dasharray:8.33,8.33;"/></g><clipPath id="_clip35"><rect x="233.333" y="41.667" width="2383.33" height="1566.67"/></clipPath><g clip-path="url(#_clip35)"><path d="M233.333,158.917l2383.33,-0" style="fill:none;fill-rule:nonzero;stroke:#fff;stroke-width:2.08px;stroke-linecap:butt;stroke-miterlimit:4;stroke-dasharray:8.33,8.33;"/></g><clipPath id="_clip36"><rect x="233.333" y="41.667" width="2383.33" height="1566.67"/></clipPath><g clip-path="url(#_clip36)"><path d="M233.333,73.625l2383.33,0" style="fill:none;fill-rule:nonzero;stroke:#fff;stroke-width:2.08px;stroke-linecap:butt;stroke-miterlimit:4;stroke-dasharray:8.33,8.33;"/></g><path d="M1320.17,1139.42l279.583,-298.417" style="fill:none;fill-rule:nonzero;stroke:#ff5;stroke-width:12.5px;"/><path d="M1599.75,841l-279.583,-596.833" style="fill:none;fill-rule:nonzero;stroke:#ff5;stroke-width:12.5px;"/><path d="M1320.17,244.167l-0,895.25" style="fill:none;fill-rule:nonzero;stroke:#ff5;stroke-width:12.5px;"/><path d="M341.667,1011.5l279.583,-298.417" style="fill:none;fill-rule:nonzero;stroke:#5f5;stroke-width:12.5px;"/><path d="M621.25,713.083l-279.583,-596.833" style="fill:none;fill-rule:nonzero;stroke:#5f5;stroke-width:12.5px;"/><path d="M341.667,116.25l-0,895.25" style="fill:none;fill-rule:nonzero;stroke:#5f5;stroke-width:12.5px;"/><path d="M830.917,1309.92l279.583,-298.417" style="fill:none;fill-rule:nonzero;stroke:#55f;stroke-width:12.5px;"/><path d="M1110.5,1011.5l-279.583,-596.833" style="fill:none;fill-rule:nonzero;stroke:#55f;stroke-width:12.5px;"/><path d="M830.917,414.667l-0,895.25" style="fill:none;fill-rule:nonzero;stroke:#55f;stroke-width:12.5px;"/><path d="M1040.58,1437.79l489.25,-170.5" style="fill:none;fill-rule:nonzero;stroke:#f55;stroke-width:12.5px;"/><path d="M1529.83,1267.29l978.5,170.5" style="fill:none;fill-rule:nonzero;stroke:#f55;stroke-width:12.5px;"/><path d="M2508.33,1437.79l-1467.75,-0" style="fill:none;fill-rule:nonzero;stroke:#f55;stroke-width:12.5px;"/><rect x="233.333" y="41.667" width="2383.33" height="1566.67" style="fill:none;stroke:#000;stroke-width:2.08px;stroke-linecap:round;stroke-linejoin:round;"/></svg>