<?xml version="1.0" encoding="UTF-8" standalone="no"?><!DOCTYPE svg PUBLIC "-//W3C//DTD SVG 1.1//EN" "http://www.w3.org/Graphics/SVG/1.1/DTD/svg11.dtd"><svg width="100%" height="100%" viewBox="0 0 2667 2000" version="1.1" xmlns="http://www.w3.org/2000/svg" xmlns:xlink="http://www.w3.org/1999/xlink" xml:space="preserve" xmlns:serif="http://www.serif.com/" style="fill-rule:evenodd;clip-rule:evenodd;stroke-linecap:square;stroke-linejoin:bevel;stroke-miterlimit:10;"><rect x="0" y="0" width="2666.67" height="2000" style="fill:#fff;"/><rect x="4.167" y="1820.83" width="2658.33" height="175" style="fill:#fff;"/><g><g><path d="M16.667,1864.58l58.333,0" style="fill:none;fill-rule:nonzero;stroke:#f55;stroke-width:12.5px;"/></g><g><text x="91.667px" y="1883.38px" style="font-family:'Tahoma', sans-serif;font-size:50px;fill:#404040;">P<tspan x="118.083px 145.231px " y="1883.38px 1883.38px ">oi</tspan>nt[] points = {new P<tspan x="613.298px 640.446px " y="1883.38px 1883.38px ">oi</tspan>nt(7<tspan x="739.25px 754.386px " y="1883.38px 1883.38px ">,9</tspan>),...<tspan x="858.927px " y="1883.38px ">}</tspan></text></g></g><g><g><path d="M916.667,1864.58l58.333,0" style="fill:none;fill-rule:nonzero;stroke:#55f;stroke-width:12.5px;"/></g><g><text x="991.667px" y="1883.38px" style="font-family:'Tahoma', sans-serif;font-size:50px;fill:#404040;">f<tspan x="1007.1px 1034.25px " y="1883.38px 1883.38px ">or</tspan>(P<tspan x="1097.82px 1124.97px " y="1883.38px 1883.38px ">oi</tspan>nt point : points){point.r<tspan x="1676.38px 1702.7px " y="1883.38px 1883.38px ">eﬂ</tspan>ectX();}</text></g></g><g><g><path d="M16.667,1952.08l58.333,0" style="fill:none;fill-rule:nonzero;stroke:#5f5;stroke-width:12.5px;"/></g><g><text x="91.667px" y="1970.88px" style="font-family:'Tahoma', sans-serif;font-size:50px;fill:#404040;">f<tspan x="107.096px 134.245px " y="1970.88px 1970.88px ">or</tspan>(P<tspan x="197.819px 224.967px " y="1970.88px 1970.88px ">oi</tspan>nt point : points){point.r<tspan x="776.383px 802.702px " y="1970.88px 1970.88px ">eﬂ</tspan>ectX(-2);}</text></g></g><rect x="250" y="41.667" width="2366.67" height="1566.67" style="fill:#c0c0c0;"/><path d="M250,1625l2366.67,0" style="fill:none;fill-rule:nonzero;stroke:#808080;stroke-width:2.08px;stroke-linejoin:miter;"/><g><g><text x="240.542px" y="1693.83px" style="font-family:'Tahoma', sans-serif;font-size:50px;fill:#404040;">6</text><text x="343px" y="1693.83px" style="font-family:'Tahoma', sans-serif;font-size:50px;fill:#404040;">7</text><text x="445.458px" y="1693.83px" style="font-family:'Tahoma', sans-serif;font-size:50px;fill:#404040;">8</text><text x="547.917px" y="1693.83px" style="font-family:'Tahoma', sans-serif;font-size:50px;fill:#404040;">9</text><text x="637.833px" y="1693.83px" style="font-family:'Tahoma', sans-serif;font-size:50px;fill:#404040;">10</text><text x="740.292px" y="1693.83px" style="font-family:'Tahoma', sans-serif;font-size:50px;fill:#404040;">11</text><text x="842.75px" y="1693.83px" style="font-family:'Tahoma', sans-serif;font-size:50px;fill:#404040;">12</text><text x="945.208px" y="1693.83px" style="font-family:'Tahoma', sans-serif;font-size:50px;fill:#404040;">13</text><text x="1047.67px" y="1693.83px" style="font-family:'Tahoma', sans-serif;font-size:50px;fill:#404040;">14</text><text x="1150.12px" y="1693.83px" style="font-family:'Tahoma', sans-serif;font-size:50px;fill:#404040;">15</text><text x="1252.58px" y="1693.83px" style="font-family:'Tahoma', sans-serif;font-size:50px;fill:#404040;">16</text><text x="1355.04px" y="1693.83px" style="font-family:'Tahoma', sans-serif;font-size:50px;fill:#404040;">17</text><text x="1457.46px" y="1693.83px" style="font-family:'Tahoma', sans-serif;font-size:50px;fill:#404040;">18</text><text x="1559.92px" y="1693.83px" style="font-family:'Tahoma', sans-serif;font-size:50px;fill:#404040;">19</text><text x="1662.38px" y="1693.83px" style="font-family:'Tahoma', sans-serif;font-size:50px;fill:#404040;">20</text><text x="1764.83px" y="1693.83px" style="font-family:'Tahoma', sans-serif;font-size:50px;fill:#404040;">21</text><text x="1867.29px" y="1693.83px" style="font-family:'Tahoma', sans-serif;font-size:50px;fill:#404040;">22</text><text x="1969.75px" y="1693.83px" style="font-family:'Tahoma', sans-serif;font-size:50px;fill:#404040;">23</text><text x="2072.21px" y="1693.83px" style="font-family:'Tahoma', sans-serif;font-size:50px;fill:#404040;">24</text><text x="2174.67px" y="1693.83px" style="font-family:'Tahoma', sans-serif;font-size:50px;fill:#404040;">25</text><text x="2277.08px" y="1693.83px" style="font-family:'Tahoma', sans-serif;font-size:50px;fill:#404040;">26</text><text x="2379.54px" y="1693.83px" style="font-family:'Tahoma', sans-serif;font-size:50px;fill:#404040;">27</text><text x="2482px" y="1693.83px" style="font-family:'Tahoma', sans-serif;font-size:50px;fill:#404040;">28</text><text x="2584.46px" y="1693.83px" style="font-family:'Tahoma', sans-serif;font-size:50px;fill:#404040;">29</text></g></g><path d="M255.125,1633.33l0,-8.333" style="fill:none;fill-rule:nonzero;stroke:#808080;stroke-width:2.08px;stroke-linejoin:miter;"/><path d="M357.583,1633.33l0,-8.333" style="fill:none;fill-rule:nonzero;stroke:#808080;stroke-width:2.08px;stroke-linejoin:miter;"/><path d="M460.042,1633.33l-0,-8.333" style="fill:none;fill-rule:nonzero;stroke:#808080;stroke-width:2.08px;stroke-linejoin:miter;"/><path d="M562.5,1633.33l0,-8.333" style="fill:none;fill-rule:nonzero;stroke:#808080;stroke-width:2.08px;stroke-linejoin:miter;"/><path d="M664.917,1633.33l-0,-8.333" style="fill:none;fill-rule:nonzero;stroke:#808080;stroke-width:2.08px;stroke-linejoin:miter;"/><path d="M767.375,1633.33l0,-8.333" style="fill:none;fill-rule:nonzero;stroke:#808080;stroke-width:2.08px;stroke-linejoin:miter;"/><path d="M869.833,1633.33l0,-8.333" style="fill:none;fill-rule:nonzero;stroke:#808080;stroke-width:2.08px;stroke-linejoin:miter;"/><path d="M972.292,1633.33l-0,-8.333" style="fill:none;fill-rule:nonzero;stroke:#808080;stroke-width:2.08px;stroke-linejoin:miter;"/><path d="M1074.75,1633.33l0,-8.333" style="fill:none;fill-rule:nonzero;stroke:#808080;stroke-width:2.08px;stroke-linejoin:miter;"/><path d="M1177.21,1633.33l0,-8.333" style="fill:none;fill-rule:nonzero;stroke:#808080;stroke-width:2.08px;stroke-linejoin:miter;"/><path d="M1279.67,1633.33l-0,-8.333" style="fill:none;fill-rule:nonzero;stroke:#808080;stroke-width:2.08px;stroke-linejoin:miter;"/><path d="M1382.12,1633.33l0,-8.333" style="fill:none;fill-rule:nonzero;stroke:#808080;stroke-width:2.08px;stroke-linejoin:miter;"/><path d="M1484.54,1633.33l-0,-8.333" style="fill:none;fill-rule:nonzero;stroke:#808080;stroke-width:2.08px;stroke-linejoin:miter;"/><path d="M1587,1633.33l0,-8.333" style="fill:none;fill-rule:nonzero;stroke:#808080;stroke-width:2.08px;stroke-linejoin:miter;"/><path d="M1689.46,1633.33l0,-8.333" style="fill:none;fill-rule:nonzero;stroke:#808080;stroke-width:2.08px;stroke-linejoin:miter;"/><path d="M1791.92,1633.33l-0,-8.333" style="fill:none;fill-rule:nonzero;stroke:#808080;stroke-width:2.08px;stroke-linejoin:miter;"/><path d="M1894.38,1633.33l0,-8.333" style="fill:none;fill-rule:nonzero;stroke:#808080;stroke-width:2.08px;stroke-linejoin:miter;"/><path d="M1996.83,1633.33l0,-8.333" style="fill:none;fill-rule:nonzero;stroke:#808080;stroke-width:2.08px;stroke-linejoin:miter;"/><path d="M2099.29,1633.33l-0,-8.333" style="fill:none;fill-rule:nonzero;stroke:#808080;stroke-width:2.08px;stroke-linejoin:miter;"/><path d="M2201.75,1633.33l0,-8.333" style="fill:none;fill-rule:nonzero;stroke:#808080;stroke-width:2.08px;stroke-linejoin:miter;"/><path d="M2304.17,1633.33l-0,-8.333" style="fill:none;fill-rule:nonzero;stroke:#808080;stroke-width:2.08px;stroke-linejoin:miter;"/><path d="M2406.62,1633.33l0,-8.333" style="fill:none;fill-rule:nonzero;stroke:#808080;stroke-width:2.08px;stroke-linejoin:miter;"/><path d="M2509.08,1633.33l0,-8.333" style="fill:none;fill-rule:nonzero;stroke:#808080;stroke-width:2.08px;stroke-linejoin:miter;"/><path d="M2611.54,1633.33l-0,-8.333" style="fill:none;fill-rule:nonzero;stroke:#808080;stroke-width:2.08px;stroke-linejoin:miter;"/><g><text x="1412.5px" y="1773.29px" style="font-family:'Tahoma-Bold', 'Tahoma', sans-serif;font-weight:700;font-size:58.333px;fill:#404040;">X</text></g><path d="M233.333,41.667l0,1566.67" style="fill:none;fill-rule:nonzero;stroke:#808080;stroke-width:2.08px;stroke-linejoin:miter;"/><g><g><text x="137.5px" y="1486.83px" style="font-family:'Tahoma', sans-serif;font-size:50px;fill:#404040;">-20</text><text x="137.5px" y="1308.79px" style="font-family:'Tahoma', sans-serif;font-size:50px;fill:#404040;">-15</text><text x="137.5px" y="1130.79px" style="font-family:'Tahoma', sans-serif;font-size:50px;fill:#404040;">-10</text><text x="162.5px" y="952.75px" style="font-family:'Tahoma', sans-serif;font-size:50px;fill:#404040;">-5</text><text x="179.167px" y="774.708px" style="font-family:'Tahoma', sans-serif;font-size:50px;fill:#404040;">0</text><text x="179.167px" y="596.667px" style="font-family:'Tahoma', sans-serif;font-size:50px;fill:#404040;">5</text><text x="154.167px" y="418.667px" style="font-family:'Tahoma', sans-serif;font-size:50px;fill:#404040;">10</text><text x="154.167px" y="240.625px" style="font-family:'Tahoma', sans-serif;font-size:50px;fill:#404040;">15</text><text x="154.167px" y="62.583px" style="font-family:'Tahoma', sans-serif;font-size:50px;fill:#404040;">20</text></g></g><path d="M225,1465.92l8.333,-0" style="fill:none;fill-rule:nonzero;stroke:#808080;stroke-width:2.08px;stroke-linejoin:miter;"/><path d="M225,1287.88l8.333,0" style="fill:none;fill-rule:nonzero;stroke:#808080;stroke-width:2.08px;stroke-linejoin:miter;"/><path d="M225,1109.83l8.333,0" style="fill:none;fill-rule:nonzero;stroke:#808080;stroke-width:2.08px;stroke-linejoin:miter;"/><path d="M225,931.833l8.333,0" style="fill:none;fill-rule:nonzero;stroke:#808080;stroke-width:2.08px;stroke-linejoin:miter;"/><path d="M225,753.792l8.333,-0" style="fill:none;fill-rule:nonzero;stroke:#808080;stroke-width:2.08px;stroke-linejoin:miter;"/><path d="M225,575.75l8.333,0" style="fill:none;fill-rule:nonzero;stroke:#808080;stroke-width:2.08px;stroke-linejoin:miter;"/><path d="M225,397.708l8.333,0" style="fill:none;fill-rule:nonzero;stroke:#808080;stroke-width:2.08px;stroke-linejoin:miter;"/><path d="M225,219.708l8.333,0" style="fill:none;fill-rule:nonzero;stroke:#808080;stroke-width:2.08px;stroke-linejoin:miter;"/><path d="M225,41.667l8.333,-0" style="fill:none;fill-rule:nonzero;stroke:#808080;stroke-width:2.08px;stroke-linejoin:miter;"/><g><path d="M62.25,804.083l24.667,14.667l17.708,0l0,10.625l-17.208,0l-25.167,14.875l0,-12.083l15.083,-8.334l-15.083,-8l0,-11.75Z" style="fill:#404040;fill-rule:nonzero;"/></g><clipPath id="_clip1"><rect x="250" y="41.667" width="2366.67" height="1566.67"/></clipPath><g clip-path="url(#_clip1)"><path d="M255.125,41.667l0,1566.67" style="fill:none;fill-rule:nonzero;stroke:#fff;stroke-width:2.08px;stroke-linecap:butt;stroke-miterlimit:4;stroke-dasharray:8.33,8.33;"/></g><clipPath id="_clip2"><rect x="250" y="41.667" width="2366.67" height="1566.67"/></clipPath><g clip-path="url(#_clip2)"><path d="M357.583,41.667l0,1566.67" style="fill:none;fill-rule:nonzero;stroke:#fff;stroke-width:2.08px;stroke-linecap:butt;stroke-miterlimit:4;stroke-dasharray:8.33,8.33;"/></g><clipPath id="_clip3"><rect x="250" y="41.667" width="2366.67" height="1566.67"/></clipPath><g clip-path="url(#_clip3)"><path d="M460.042,41.667l-0,1566.67" style="fill:none;fill-rule:nonzero;stroke:#fff;stroke-width:2.08px;stroke-linecap:butt;stroke-miterlimit:4;stroke-dasharray:8.33,8.33;"/></g><clipPath id="_clip4"><rect x="250" y="41.667" width="2366.67" height="1566.67"/></clipPath><g clip-path="url(#_clip4)"><path d="M562.5,41.667l0,1566.67" style="fill:none;fill-rule:nonzero;stroke:#fff;stroke-width:2.08px;stroke-linecap:butt;stroke-miterlimit:4;stroke-dasharray:8.33,8.33;"/></g><clipPath id="_clip5"><rect x="250" y="41.667" width="2366.67" height="1566.67"/></clipPath><g clip-path="url(#_clip5)"><path d="M664.917,41.667l-0,1566.67" style="fill:none;fill-rule:nonzero;stroke:#fff;stroke-width:2.08px;stroke-linecap:butt;stroke-miterlimit:4;stroke-dasharray:8.33,8.33;"/></g><clipPath id="_clip6"><rect x="250" y="41.667" width="2366.67" height="1566.67"/></clipPath><g clip-path="url(#_clip6)"><path d="M767.375,41.667l0,1566.67" style="fill:none;fill-rule:nonzero;stroke:#fff;stroke-width:2.08px;stroke-linecap:butt;stroke-miterlimit:4;stroke-dasharray:8.33,8.33;"/></g><clipPath id="_clip7"><rect x="250" y="41.667" width="2366.67" height="1566.67"/></clipPath><g clip-path="url(#_clip7)"><path d="M869.833,41.667l0,1566.67" style="fill:none;fill-rule:nonzero;stroke:#fff;stroke-width:2.08px;stroke-linecap:butt;stroke-miterlimit:4;stroke-dasharray:8.33,8.33;"/></g><clipPath id="_clip8"><rect x="250" y="41.667" width="2366.67" height="1566.67"/></clipPath><g clip-path="url(#_clip8)"><path d="M972.292,41.667l-0,1566.67" style="fill:none;fill-rule:nonzero;stroke:#fff;stroke-width:2.08px;stroke-linecap:butt;stroke-miterlimit:4;stroke-dasharray:8.33,8.33;"/></g><clipPath id="_clip9"><rect x="250" y="41.667" width="2366.67" height="1566.67"/></clipPath><g clip-path="url(#_clip9)"><path d="M1074.75,41.667l0,1566.67" style="fill:none;fill-rule:nonzero;stroke:#fff;stroke-width:2.08px;stroke-linecap:butt;stroke-miterlimit:4;stroke-dasharray:8.33,8.33;"/></g><clipPath id="_clip10"><rect x="250" y="41.667" width="2366.67" height="1566.67"/></clipPath><g clip-path="url(#_clip10)"><path d="M1177.21,41.667l0,1566.67" style="fill:none;fill-rule:nonzero;stroke:#fff;stroke-width:2.08px;stroke-linecap:butt;stroke-miterlimit:4;stroke-dasharray:8.33,8.33;"/></g><clipPath id="_clip11"><rect x="250" y="41.667" width="2366.67" height="1566.67"/></clipPath><g clip-path="url(#_clip11)"><path d="M1279.67,41.667l-0,1566.67" style="fill:none;fill-rule:nonzero;stroke:#fff;stroke-width:2.08px;stroke-linecap:butt;stroke-miterlimit:4;stroke-dasharray:8.33,8.33;"/></g><clipPath id="_clip12"><rect x="250" y="41.667" width="2366.67" height="1566.67"/></clipPath><g clip-path="url(#_clip12)"><path d="M1382.12,41.667l0,1566.67" style="fill:none;fill-rule:nonzero;stroke:#fff;stroke-width:2.08px;stroke-linecap:butt;stroke-miterlimit:4;stroke-dasharray:8.33,8.33;"/></g><clipPath id="_clip13"><rect x="250" y="41.667" width="2366.67" height="1566.67"/></clipPath><g clip-path="url(#_clip13)"><path d="M1484.54,41.667l-0,1566.67" style="fill:none;fill-rule:nonzero;stroke:#fff;stroke-width:2.08px;stroke-linecap:butt;stroke-miterlimit:4;stroke-dasharray:8.33,8.33;"/></g><clipPath id="_clip14"><rect x="250" y="41.667" width="2366.67" height="1566.67"/></clipPath><g clip-path="url(#_clip14)"><path d="M1587,41.667l0,1566.67" style="fill:none;fill-rule:nonzero;stroke:#fff;stroke-width:2.08px;stroke-linecap:butt;stroke-miterlimit:4;stroke-dasharray:8.33,8.33;"/></g><clipPath id="_clip15"><rect x="250" y="41.667" width="2366.67" height="1566.67"/></clipPath><g clip-path="url(#_clip15)"><path d="M1689.46,41.667l0,1566.67" style="fill:none;fill-rule:nonzero;stroke:#fff;stroke-width:2.08px;stroke-linecap:butt;stroke-miterlimit:4;stroke-dasharray:8.33,8.33;"/></g><clipPath id="_clip16"><rect x="250" y="41.667" width="2366.67" height="1566.67"/></clipPath><g clip-path="url(#_clip16)"><path d="M1791.92,41.667l-0,1566.67" style="fill:none;fill-rule:nonzero;stroke:#fff;stroke-width:2.08px;stroke-linecap:butt;stroke-miterlimit:4;stroke-dasharray:8.33,8.33;"/></g><clipPath id="_clip17"><rect x="250" y="41.667" width="2366.67" height="1566.67"/></clipPath><g clip-path="url(#_clip17)"><path d="M1894.38,41.667l0,1566.67" style="fill:none;fill-rule:nonzero;stroke:#fff;stroke-width:2.08px;stroke-linecap:butt;stroke-miterlimit:4;stroke-dasharray:8.33,8.33;"/></g><clipPath id="_clip18"><rect x="250" y="41.667" width="2366.67" height="1566.67"/></clipPath><g clip-path="url(#_clip18)"><path d="M1996.83,41.667l0,1566.67" style="fill:none;fill-rule:nonzero;stroke:#fff;stroke-width:2.08px;stroke-linecap:butt;stroke-miterlimit:4;stroke-dasharray:8.33,8.33;"/></g><clipPath id="_clip19"><rect x="250" y="41.667" width="2366.67" height="1566.67"/></clipPath><g clip-path="url(#_clip19)"><path d="M2099.29,41.667l-0,1566.67" style="fill:none;fill-rule:nonzero;stroke:#fff;stroke-width:2.08px;stroke-linecap:butt;stroke-miterlimit:4;stroke-dasharray:8.33,8.33;"/></g><clipPath id="_clip20"><rect x="250" y="41.667" width="2366.67" height="1566.67"/></clipPath><g clip-path="url(#_clip20)"><path d="M2201.75,41.667l0,1566.67" style="fill:none;fill-rule:nonzero;stroke:#fff;stroke-width:2.08px;stroke-linecap:butt;stroke-miterlimit:4;stroke-dasharray:8.33,8.33;"/></g><clipPath id="_clip21"><rect x="250" y="41.667" width="2366.67" height="1566.67"/></clipPath><g clip-path="url(#_clip21)"><path d="M2304.17,41.667l-0,1566.67" style="fill:none;fill-rule:nonzero;stroke:#fff;stroke-width:2.08px;stroke-linecap:butt;stroke-miterlimit:4;stroke-dasharray:8.33,8.33;"/></g><clipPath id="_clip22"><rect x="250" y="41.667" width="2366.67" height="1566.67"/></clipPath><g clip-path="url(#_clip22)"><path d="M2406.62,41.667l0,1566.67" style="fill:none;fill-rule:nonzero;stroke:#fff;stroke-width:2.08px;stroke-linecap:butt;stroke-miterlimit:4;stroke-dasharray:8.33,8.33;"/></g><clipPath id="_clip23"><rect x="250" y="41.667" width="2366.67" height="1566.67"/></clipPath><g clip-path="url(#_clip23)"><path d="M2509.08,41.667l0,1566.67" style="fill:none;fill-rule:nonzero;stroke:#fff;stroke-width:2.08px;stroke-linecap:butt;stroke-miterlimit:4;stroke-dasharray:8.33,8.33;"/></g><clipPath id="_clip24"><rect x="250" y="41.667" width="2366.67" height="1566.67"/></clipPath><g clip-path="url(#_clip24)"><path d="M2611.54,41.667l-0,1566.67" style="fill:none;fill-rule:nonzero;stroke:#fff;stroke-width:2.08px;stroke-linecap:butt;stroke-miterlimit:4;stroke-dasharray:8.33,8.33;"/></g><clipPath id="_clip25"><rect x="250" y="41.667" width="2366.67" height="1566.67"/></clipPath><g clip-path="url(#_clip25)"><path d="M250,1465.92l2366.67,-0" style="fill:none;fill-rule:nonzero;stroke:#fff;stroke-width:2.08px;stroke-linecap:butt;stroke-miterlimit:4;stroke-dasharray:8.33,8.33;"/></g><clipPath id="_clip26"><rect x="250" y="41.667" width="2366.67" height="1566.67"/></clipPath><g clip-path="url(#_clip26)"><path d="M250,1287.88l2366.67,0" style="fill:none;fill-rule:nonzero;stroke:#fff;stroke-width:2.08px;stroke-linecap:butt;stroke-miterlimit:4;stroke-dasharray:8.33,8.33;"/></g><clipPath id="_clip27"><rect x="250" y="41.667" width="2366.67" height="1566.67"/></clipPath><g clip-path="url(#_clip27)"><path d="M250,1109.83l2366.67,0" style="fill:none;fill-rule:nonzero;stroke:#fff;stroke-width:2.08px;stroke-linecap:butt;stroke-miterlimit:4;stroke-dasharray:8.33,8.33;"/></g><clipPath id="_clip28"><rect x="250" y="41.667" width="2366.67" height="1566.67"/></clipPath><g clip-path="url(#_clip28)"><path d="M250,931.833l2366.67,0" style="fill:none;fill-rule:nonzero;stroke:#fff;stroke-width:2.08px;stroke-linecap:butt;stroke-miterlimit:4;stroke-dasharray:8.33,8.33;"/></g><clipPath id="_clip29"><rect x="250" y="41.667" width="2366.67" height="1566.67"/></clipPath><g clip-path="url(#_clip29)"><path d="M250,753.792l2366.67,-0" style="fill:none;fill-rule:nonzero;stroke:#fff;stroke-width:2.08px;stroke-linecap:butt;stroke-miterlimit:4;stroke-dasharray:8.33,8.33;"/></g><clipPath id="_clip30"><rect x="250" y="41.667" width="2366.67" height="1566.67"/></clipPath><g clip-path="url(#_clip30)"><path d="M250,575.75l2366.67,0" style="fill:none;fill-rule:nonzero;stroke:#fff;stroke-width:2.08px;stroke-linecap:butt;stroke-miterlimit:4;stroke-dasharray:8.33,8.33;"/></g><clipPath id="_clip31"><rect x="250" y="41.667" width="2366.67" height="1566.67"/></clipPath><g clip-path="url(#_clip31)"><path d="M250,397.708l2366.67,0" style="fill:none;fill-rule:nonzero;stroke:#fff;stroke-width:2.08px;stroke-linecap:butt;stroke-miterlimit:4;stroke-dasharray:8.33,8.33;"/></g><clipPath id="_clip32"><rect x="250" y="41.667" width="2366.67" height="1566.67"/></clipPath><g clip-path="url(#_clip32)"><path d="M250,219.708l2366.67,0" style="fill:none;fill-rule:nonzero;stroke:#fff;stroke-width:2.08px;stroke-linecap:butt;stroke-miterlimit:4;stroke-dasharray:8.33,8.33;"/></g><clipPath id="_clip33"><rect x="250" y="41.667" width="2366.67" height="1566.67"/></clipPath><g clip-path="url(#_clip33)"><path d="M250,41.667l2366.67,-0" style="fill:none;fill-rule:nonzero;stroke:#fff;stroke-width:2.08px;stroke-linecap:butt;stroke-miterlimit:4;stroke-dasharray:8.33,8.33;"/></g><g><path d="M357.583,1216.67l717.167,320.458" style="fill:none;fill-rule:nonzero;stroke:#5f5;stroke-width:12.5px;"/><path d="M1074.75,1537.12l1434.33,-320.458" style="fill:none;fill-rule:nonzero;stroke:#5f5;stroke-width:12.5px;"/><path d="M2509.08,1216.67l-2151.5,-0" style="fill:none;fill-rule:nonzero;stroke:#5f5;stroke-width:12.5px;"/></g><g><path d="M357.583,1074.25l717.167,320.458" style="fill:none;fill-rule:nonzero;stroke:#55f;stroke-width:12.5px;"/><path d="M1074.75,1394.71l1434.33,-320.458" style="fill:none;fill-rule:nonzero;stroke:#55f;stroke-width:12.5px;"/><path d="M2509.08,1074.25l-2151.5,0" style="fill:none;fill-rule:nonzero;stroke:#55f;stroke-width:12.5px;"/></g><g><path d="M357.583,433.333l717.167,-320.458" style="fill:none;fill-rule:nonzero;stroke:#f55;stroke-width:12.5px;"/><path d="M1074.75,112.875l1434.33,320.458" style="fill:none;fill-rule:nonzero;stroke:#f55;stroke-width:12.5px;"/><path d="M2509.08,433.333l-2151.5,0" style="fill:none;fill-rule:nonzero;stroke:#f55;stroke-width:12.5px;"/></g><rect x="250" y="41.667" width="2366.67" height="1566.67" style="fill:none;stroke:#000;stroke-width:2.08px;stroke-linecap:round;stroke-linejoin:round;"/></svg>