<?xml version="1.0" encoding="UTF-8" standalone="no"?><!DOCTYPE svg PUBLIC "-//W3C//DTD SVG 1.1//EN" "http://www.w3.org/Graphics/SVG/1.1/DTD/svg11.dtd"><svg width="100%" height="100%" viewBox="0 0 2667 2000" version="1.1" xmlns="http://www.w3.org/2000/svg" xmlns:xlink="http://www.w3.org/1999/xlink" xml:space="preserve" xmlns:serif="http://www.serif.com/" style="fill-rule:evenodd;clip-rule:evenodd;stroke-linecap:square;stroke-linejoin:bevel;stroke-miterlimit:10;"><rect x="0" y="0" width="2666.67" height="2000" style="fill:#fff;"/><rect x="310.417" y="1908.33" width="2045.83" height="87.5" style="fill:#fff;"/><g><path d="M322.917,1952.08l58.333,0" style="fill:none;fill-rule:nonzero;stroke:#f55;stroke-width:12.5px;"/></g><g><text x="397.917px" y="1970.88px" style="font-family:'Tahoma', sans-serif;font-size:50px;fill:#404040;">P<tspan x="424.333px 451.481px " y="1970.88px 1970.88px ">oi</tspan>nt[] points = {new P<tspan x="919.548px 946.696px " y="1970.88px 1970.88px ">oi</tspan>nt(-6,4),...<tspan x="1187px " y="1970.88px ">}</tspan></text></g><g><path d="M1239.58,1952.08l58.334,0" style="fill:none;fill-rule:nonzero;stroke:#55f;stroke-width:12.5px;"/></g><g><text x="1314.58px" y="1970.88px" style="font-family:'Tahoma', sans-serif;font-size:50px;fill:#404040;">f<tspan x="1330.01px 1357.16px " y="1970.88px 1970.88px ">or</tspan>(P<tspan x="1420.74px 1447.88px " y="1970.88px 1970.88px ">oi</tspan>nt point : points){point.tr<tspan x="2015.41px 2041.66px " y="1970.88px 1970.88px ">an</tspan>slate(4<tspan x="2218.51px 2233.65px " y="1970.88px 1970.88px ">,-</tspan>6);}</text></g><rect x="266.667" y="41.667" width="2350" height="1654.17" style="fill:#c0c0c0;"/><path d="M266.667,1712.5l2350,0" style="fill:none;fill-rule:nonzero;stroke:#808080;stroke-width:2.08px;stroke-linejoin:miter;"/><g><text x="338.083px" y="1781.33px" style="font-family:'Tahoma', sans-serif;font-size:50px;fill:#404040;">-24</text></g><path d="M373.5,1720.83l0,-8.333" style="fill:none;fill-rule:nonzero;stroke:#808080;stroke-width:2.08px;stroke-linejoin:miter;"/><g><text x="532.292px" y="1781.33px" style="font-family:'Tahoma', sans-serif;font-size:50px;fill:#404040;">-22</text></g><path d="M567.708,1720.83l0,-8.333" style="fill:none;fill-rule:nonzero;stroke:#808080;stroke-width:2.08px;stroke-linejoin:miter;"/><g><text x="726.5px" y="1781.33px" style="font-family:'Tahoma', sans-serif;font-size:50px;fill:#404040;">-20</text></g><path d="M761.917,1720.83l-0,-8.333" style="fill:none;fill-rule:nonzero;stroke:#808080;stroke-width:2.08px;stroke-linejoin:miter;"/><g><text x="920.708px" y="1781.33px" style="font-family:'Tahoma', sans-serif;font-size:50px;fill:#404040;">-18</text></g><path d="M956.125,1720.83l0,-8.333" style="fill:none;fill-rule:nonzero;stroke:#808080;stroke-width:2.08px;stroke-linejoin:miter;"/><g><text x="1114.92px" y="1781.33px" style="font-family:'Tahoma', sans-serif;font-size:50px;fill:#404040;">-16</text></g><path d="M1150.33,1720.83l0,-8.333" style="fill:none;fill-rule:nonzero;stroke:#808080;stroke-width:2.08px;stroke-linejoin:miter;"/><g><text x="1309.12px" y="1781.33px" style="font-family:'Tahoma', sans-serif;font-size:50px;fill:#404040;">-14</text></g><path d="M1344.54,1720.83l-0,-8.333" style="fill:none;fill-rule:nonzero;stroke:#808080;stroke-width:2.08px;stroke-linejoin:miter;"/><g><text x="1503.38px" y="1781.33px" style="font-family:'Tahoma', sans-serif;font-size:50px;fill:#404040;">-12</text></g><path d="M1538.79,1720.83l-0,-8.333" style="fill:none;fill-rule:nonzero;stroke:#808080;stroke-width:2.08px;stroke-linejoin:miter;"/><g><text x="1697.58px" y="1781.33px" style="font-family:'Tahoma', sans-serif;font-size:50px;fill:#404040;">-10</text></g><path d="M1733,1720.83l0,-8.333" style="fill:none;fill-rule:nonzero;stroke:#808080;stroke-width:2.08px;stroke-linejoin:miter;"/><g><text x="1904.29px" y="1781.33px" style="font-family:'Tahoma', sans-serif;font-size:50px;fill:#404040;">-8</text></g><path d="M1927.21,1720.83l0,-8.333" style="fill:none;fill-rule:nonzero;stroke:#808080;stroke-width:2.08px;stroke-linejoin:miter;"/><g><text x="2098.5px" y="1781.33px" style="font-family:'Tahoma', sans-serif;font-size:50px;fill:#404040;">-6</text></g><path d="M2121.42,1720.83l-0,-8.333" style="fill:none;fill-rule:nonzero;stroke:#808080;stroke-width:2.08px;stroke-linejoin:miter;"/><g><text x="2292.71px" y="1781.33px" style="font-family:'Tahoma', sans-serif;font-size:50px;fill:#404040;">-4</text></g><path d="M2315.62,1720.83l0,-8.333" style="fill:none;fill-rule:nonzero;stroke:#808080;stroke-width:2.08px;stroke-linejoin:miter;"/><g><text x="2486.92px" y="1781.33px" style="font-family:'Tahoma', sans-serif;font-size:50px;fill:#404040;">-2</text></g><path d="M2509.83,1720.83l0,-8.333" style="fill:none;fill-rule:nonzero;stroke:#808080;stroke-width:2.08px;stroke-linejoin:miter;"/><g><text x="1420.83px" y="1860.79px" style="font-family:'Tahoma-Bold', 'Tahoma', sans-serif;font-weight:700;font-size:58.333px;fill:#404040;">X</text></g><path d="M250,41.667l0,1654.17" style="fill:none;fill-rule:nonzero;stroke:#808080;stroke-width:2.08px;stroke-linejoin:miter;"/><g><text x="179.167px" y="1641.58px" style="font-family:'Tahoma', sans-serif;font-size:50px;fill:#404040;">-2</text></g><path d="M241.667,1620.62l8.333,0" style="fill:none;fill-rule:nonzero;stroke:#808080;stroke-width:2.08px;stroke-linejoin:miter;"/><g><text x="179.167px" y="1491.21px" style="font-family:'Tahoma', sans-serif;font-size:50px;fill:#404040;">-1</text></g><path d="M241.667,1470.25l8.333,0" style="fill:none;fill-rule:nonzero;stroke:#808080;stroke-width:2.08px;stroke-linejoin:miter;"/><g><text x="195.833px" y="1340.79px" style="font-family:'Tahoma', sans-serif;font-size:50px;fill:#404040;">0</text></g><path d="M241.667,1319.88l8.333,0" style="fill:none;fill-rule:nonzero;stroke:#808080;stroke-width:2.08px;stroke-linejoin:miter;"/><g><text x="195.833px" y="1190.42px" style="font-family:'Tahoma', sans-serif;font-size:50px;fill:#404040;">1</text></g><path d="M241.667,1169.5l8.333,0" style="fill:none;fill-rule:nonzero;stroke:#808080;stroke-width:2.08px;stroke-linejoin:miter;"/><g><text x="195.833px" y="1040.04px" style="font-family:'Tahoma', sans-serif;font-size:50px;fill:#404040;">2</text></g><path d="M241.667,1019.12l8.333,0" style="fill:none;fill-rule:nonzero;stroke:#808080;stroke-width:2.08px;stroke-linejoin:miter;"/><g><text x="195.833px" y="889.667px" style="font-family:'Tahoma', sans-serif;font-size:50px;fill:#404040;">3</text></g><path d="M241.667,868.75l8.333,0" style="fill:none;fill-rule:nonzero;stroke:#808080;stroke-width:2.08px;stroke-linejoin:miter;"/><g><text x="195.833px" y="739.292px" style="font-family:'Tahoma', sans-serif;font-size:50px;fill:#404040;">4</text></g><path d="M241.667,718.375l8.333,0" style="fill:none;fill-rule:nonzero;stroke:#808080;stroke-width:2.08px;stroke-linejoin:miter;"/><g><text x="195.833px" y="588.917px" style="font-family:'Tahoma', sans-serif;font-size:50px;fill:#404040;">5</text></g><path d="M241.667,568l8.333,0" style="fill:none;fill-rule:nonzero;stroke:#808080;stroke-width:2.08px;stroke-linejoin:miter;"/><g><text x="195.833px" y="438.542px" style="font-family:'Tahoma', sans-serif;font-size:50px;fill:#404040;">6</text></g><path d="M241.667,417.625l8.333,0" style="fill:none;fill-rule:nonzero;stroke:#808080;stroke-width:2.08px;stroke-linejoin:miter;"/><g><text x="195.833px" y="288.167px" style="font-family:'Tahoma', sans-serif;font-size:50px;fill:#404040;">7</text></g><path d="M241.667,267.25l8.333,0" style="fill:none;fill-rule:nonzero;stroke:#808080;stroke-width:2.08px;stroke-linejoin:miter;"/><g><text x="195.833px" y="137.792px" style="font-family:'Tahoma', sans-serif;font-size:50px;fill:#404040;">8</text></g><path d="M241.667,116.875l8.333,0" style="fill:none;fill-rule:nonzero;stroke:#808080;stroke-width:2.08px;stroke-linejoin:miter;"/><g><path d="M103.917,847.833l24.666,14.667l17.709,0l-0,10.625l-17.209,0l-25.166,14.875l-0,-12.083l15.083,-8.334l-15.083,-8l-0,-11.75Z" style="fill:#404040;fill-rule:nonzero;"/></g><clipPath id="_clip1"><rect x="266.667" y="41.667" width="2350" height="1654.17"/></clipPath><g clip-path="url(#_clip1)"><path d="M373.5,41.667l0,1654.17" style="fill:none;fill-rule:nonzero;stroke:#fff;stroke-width:2.08px;stroke-linecap:butt;stroke-miterlimit:4;stroke-dasharray:8.33,8.33;"/></g><clipPath id="_clip2"><rect x="266.667" y="41.667" width="2350" height="1654.17"/></clipPath><g clip-path="url(#_clip2)"><path d="M567.708,41.667l0,1654.17" style="fill:none;fill-rule:nonzero;stroke:#fff;stroke-width:2.08px;stroke-linecap:butt;stroke-miterlimit:4;stroke-dasharray:8.33,8.33;"/></g><clipPath id="_clip3"><rect x="266.667" y="41.667" width="2350" height="1654.17"/></clipPath><g clip-path="url(#_clip3)"><path d="M761.917,41.667l-0,1654.17" style="fill:none;fill-rule:nonzero;stroke:#fff;stroke-width:2.08px;stroke-linecap:butt;stroke-miterlimit:4;stroke-dasharray:8.33,8.33;"/></g><clipPath id="_clip4"><rect x="266.667" y="41.667" width="2350" height="1654.17"/></clipPath><g clip-path="url(#_clip4)"><path d="M956.125,41.667l0,1654.17" style="fill:none;fill-rule:nonzero;stroke:#fff;stroke-width:2.08px;stroke-linecap:butt;stroke-miterlimit:4;stroke-dasharray:8.33,8.33;"/></g><clipPath id="_clip5"><rect x="266.667" y="41.667" width="2350" height="1654.17"/></clipPath><g clip-path="url(#_clip5)"><path d="M1150.33,41.667l0,1654.17" style="fill:none;fill-rule:nonzero;stroke:#fff;stroke-width:2.08px;stroke-linecap:butt;stroke-miterlimit:4;stroke-dasharray:8.33,8.33;"/></g><clipPath id="_clip6"><rect x="266.667" y="41.667" width="2350" height="1654.17"/></clipPath><g clip-path="url(#_clip6)"><path d="M1344.54,41.667l-0,1654.17" style="fill:none;fill-rule:nonzero;stroke:#fff;stroke-width:2.08px;stroke-linecap:butt;stroke-miterlimit:4;stroke-dasharray:8.33,8.33;"/></g><clipPath id="_clip7"><rect x="266.667" y="41.667" width="2350" height="1654.17"/></clipPath><g clip-path="url(#_clip7)"><path d="M1538.79,41.667l-0,1654.17" style="fill:none;fill-rule:nonzero;stroke:#fff;stroke-width:2.08px;stroke-linecap:butt;stroke-miterlimit:4;stroke-dasharray:8.33,8.33;"/></g><clipPath id="_clip8"><rect x="266.667" y="41.667" width="2350" height="1654.17"/></clipPath><g clip-path="url(#_clip8)"><path d="M1733,41.667l0,1654.17" style="fill:none;fill-rule:nonzero;stroke:#fff;stroke-width:2.08px;stroke-linecap:butt;stroke-miterlimit:4;stroke-dasharray:8.33,8.33;"/></g><clipPath id="_clip9"><rect x="266.667" y="41.667" width="2350" height="1654.17"/></clipPath><g clip-path="url(#_clip9)"><path d="M1927.21,41.667l0,1654.17" style="fill:none;fill-rule:nonzero;stroke:#fff;stroke-width:2.08px;stroke-linecap:butt;stroke-miterlimit:4;stroke-dasharray:8.33,8.33;"/></g><clipPath id="_clip10"><rect x="266.667" y="41.667" width="2350" height="1654.17"/></clipPath><g clip-path="url(#_clip10)"><path d="M2121.42,41.667l-0,1654.17" style="fill:none;fill-rule:nonzero;stroke:#fff;stroke-width:2.08px;stroke-linecap:butt;stroke-miterlimit:4;stroke-dasharray:8.33,8.33;"/></g><clipPath id="_clip11"><rect x="266.667" y="41.667" width="2350" height="1654.17"/></clipPath><g clip-path="url(#_clip11)"><path d="M2315.62,41.667l0,1654.17" style="fill:none;fill-rule:nonzero;stroke:#fff;stroke-width:2.08px;stroke-linecap:butt;stroke-miterlimit:4;stroke-dasharray:8.33,8.33;"/></g><clipPath id="_clip12"><rect x="266.667" y="41.667" width="2350" height="1654.17"/></clipPath><g clip-path="url(#_clip12)"><path d="M2509.83,41.667l0,1654.17" style="fill:none;fill-rule:nonzero;stroke:#fff;stroke-width:2.08px;stroke-linecap:butt;stroke-miterlimit:4;stroke-dasharray:8.33,8.33;"/></g><clipPath id="_clip13"><rect x="266.667" y="41.667" width="2350" height="1654.17"/></clipPath><g clip-path="url(#_clip13)"><path d="M266.667,1620.62l2350,0" style="fill:none;fill-rule:nonzero;stroke:#fff;stroke-width:2.08px;stroke-linecap:butt;stroke-miterlimit:4;stroke-dasharray:8.33,8.33;"/></g><clipPath id="_clip14"><rect x="266.667" y="41.667" width="2350" height="1654.17"/></clipPath><g clip-path="url(#_clip14)"><path d="M266.667,1470.25l2350,0" style="fill:none;fill-rule:nonzero;stroke:#fff;stroke-width:2.08px;stroke-linecap:butt;stroke-miterlimit:4;stroke-dasharray:8.33,8.33;"/></g><clipPath id="_clip15"><rect x="266.667" y="41.667" width="2350" height="1654.17"/></clipPath><g clip-path="url(#_clip15)"><path d="M266.667,1319.88l2350,0" style="fill:none;fill-rule:nonzero;stroke:#fff;stroke-width:2.08px;stroke-linecap:butt;stroke-miterlimit:4;stroke-dasharray:8.33,8.33;"/></g><clipPath id="_clip16"><rect x="266.667" y="41.667" width="2350" height="1654.17"/></clipPath><g clip-path="url(#_clip16)"><path d="M266.667,1169.5l2350,0" style="fill:none;fill-rule:nonzero;stroke:#fff;stroke-width:2.08px;stroke-linecap:butt;stroke-miterlimit:4;stroke-dasharray:8.33,8.33;"/></g><clipPath id="_clip17"><rect x="266.667" y="41.667" width="2350" height="1654.17"/></clipPath><g clip-path="url(#_clip17)"><path d="M266.667,1019.12l2350,0" style="fill:none;fill-rule:nonzero;stroke:#fff;stroke-width:2.08px;stroke-linecap:butt;stroke-miterlimit:4;stroke-dasharray:8.33,8.33;"/></g><clipPath id="_clip18"><rect x="266.667" y="41.667" width="2350" height="1654.17"/></clipPath><g clip-path="url(#_clip18)"><path d="M266.667,868.75l2350,0" style="fill:none;fill-rule:nonzero;stroke:#fff;stroke-width:2.08px;stroke-linecap:butt;stroke-miterlimit:4;stroke-dasharray:8.33,8.33;"/></g><clipPath id="_clip19"><rect x="266.667" y="41.667" width="2350" height="1654.17"/></clipPath><g clip-path="url(#_clip19)"><path d="M266.667,718.375l2350,0" style="fill:none;fill-rule:nonzero;stroke:#fff;stroke-width:2.08px;stroke-linecap:butt;stroke-miterlimit:4;stroke-dasharray:8.33,8.33;"/></g><clipPath id="_clip20"><rect x="266.667" y="41.667" width="2350" height="1654.17"/></clipPath><g clip-path="url(#_clip20)"><path d="M266.667,568l2350,0" style="fill:none;fill-rule:nonzero;stroke:#fff;stroke-width:2.08px;stroke-linecap:butt;stroke-miterlimit:4;stroke-dasharray:8.33,8.33;"/></g><clipPath id="_clip21"><rect x="266.667" y="41.667" width="2350" height="1654.17"/></clipPath><g clip-path="url(#_clip21)"><path d="M266.667,417.625l2350,0" style="fill:none;fill-rule:nonzero;stroke:#fff;stroke-width:2.08px;stroke-linecap:butt;stroke-miterlimit:4;stroke-dasharray:8.33,8.33;"/></g><clipPath id="_clip22"><rect x="266.667" y="41.667" width="2350" height="1654.17"/></clipPath><g clip-path="url(#_clip22)"><path d="M266.667,267.25l2350,0" style="fill:none;fill-rule:nonzero;stroke:#fff;stroke-width:2.08px;stroke-linecap:butt;stroke-miterlimit:4;stroke-dasharray:8.33,8.33;"/></g><clipPath id="_clip23"><rect x="266.667" y="41.667" width="2350" height="1654.17"/></clipPath><g clip-path="url(#_clip23)"><path d="M266.667,116.875l2350,0" style="fill:none;fill-rule:nonzero;stroke:#fff;stroke-width:2.08px;stroke-linecap:butt;stroke-miterlimit:4;stroke-dasharray:8.33,8.33;"/></g><path d="M2509.83,1620.62l-582.625,-601.5" style="fill:none;fill-rule:nonzero;stroke:#55f;stroke-width:12.5px;"/><path d="M1927.21,1019.12l-1165.29,601.5" style="fill:none;fill-rule:nonzero;stroke:#55f;stroke-width:12.5px;"/><path d="M761.917,1620.62l1747.92,0" style="fill:none;fill-rule:nonzero;stroke:#55f;stroke-width:12.5px;"/><path d="M2121.42,718.375l-582.625,-601.5" style="fill:none;fill-rule:nonzero;stroke:#f55;stroke-width:12.5px;"/><path d="M1538.79,116.875l-1165.29,601.5" style="fill:none;fill-rule:nonzero;stroke:#f55;stroke-width:12.5px;"/><path d="M373.5,718.375l1747.92,0" style="fill:none;fill-rule:nonzero;stroke:#f55;stroke-width:12.5px;"/><rect x="266.667" y="41.667" width="2350" height="1654.17" style="fill:none;stroke:#000;stroke-width:2.08px;stroke-linecap:round;stroke-linejoin:round;"/></svg>